<mxfile host="65bd71144e">
    <diagram id="8IJkE5wXEIwwiDYIljkx" name="Page-1">
        <mxGraphModel dx="3211" dy="3850" grid="0" gridSize="10" guides="1" tooltips="1" connect="1" arrows="1" fold="1" page="1" pageScale="1" pageWidth="2339" pageHeight="3300" math="0" shadow="0">
            <root>
                <mxCell id="0"/>
                <mxCell id="1" parent="0"/>
                <mxCell id="2" value="" style="sketch=0;html=1;verticalAlign=top;labelPosition=center;verticalLabelPosition=bottom;align=center;spacingTop=-6;fontSize=11;fontStyle=1;fontColor=#999999;shape=image;aspect=fixed;imageAspect=0;image=data:image/svg+xml,PHN2ZyB4bWxucz0iaHR0cDovL3d3dy53My5vcmcvMjAwMC9zdmciIHhtbG5zOnY9Imh0dHBzOi8vdmVjdGEuaW8vbmFubyIgd2lkdGg9IjIwLjAwMTA0NTIyNzA1MDc4IiBoZWlnaHQ9IjIwLjAwMTA0NTIyNzA1MDc4IiBmaWxsLXJ1bGU9ImV2ZW5vZGQiIHZpZXdCb3g9IjAgMCAyMC4wMDEwNDUyMjcwNTA3OCAyMC4wMDEwNDUyMjcwNTA3OCI+JiN4YTsJPHN0eWxlIHR5cGU9InRleHQvY3NzIj4mI3hhOwkuc3Qwe2ZpbGw6I2FlY2JmYTt9JiN4YTsJLnN0MXtmaWxsOiM2NjlkZjY7fSYjeGE7CS5zdDJ7ZmlsbDojNDI4NWY0O30mI3hhOwk8L3N0eWxlPiYjeGE7CTxwYXRoIGNsYXNzPSJzdDAiIGQ9Ik00LjczIDguODN2Mi42M2E0LjkxIDQuOTEgMCAwIDAgMS43MSAxLjc0VjguODN6Ii8+JiN4YTsJPHBhdGggY2xhc3M9InN0MSIgZD0iTTcuODkgNi40MXY3LjUzQTcuNjIgNy42MiAwIDAgMCA5IDE0YTggOCAwIDAgMCAxIDBWNi40MXoiLz4mI3hhOwk8cGF0aCBjbGFzcz0ic3QwIiBkPSJNMTEuNjQgOS44NnYzLjI5YTUgNSAwIDAgMCAxLjctMS44MlY5Ljg2eiIvPiYjeGE7CTxwYXRoIGNsYXNzPSJzdDIiIGQ9Ik0xNS43NCAxNC4zMmwtMS40MiAxLjQyYS40Mi40MiAwIDAgMCAwIC42bDMuNTQgMy41NGEuNDIuNDIgMCAwIDAgLjU5IDBsMS40My0xLjQzYS40Mi40MiAwIDAgMCAwLS41OWwtMy41NC0zLjU0YS40Mi40MiAwIDAgMC0uNiAwIi8+JiN4YTsJPHBhdGggY2xhc3M9InN0MSIgZD0iTTkgMGE5IDkgMCAxIDAgMCAxOEE5IDkgMCAxIDAgOSAwbTAgMTUuNjlhNi42OCA2LjY4IDAgMCAxIC4wMDctMTMuMzYgNi42OCA2LjY4IDAgMCAxIDQuNzI3IDExLjQwM0E2LjY4IDYuNjggMCAwIDEgOSAxNS42OSIvPiYjeGE7PC9zdmc+;" vertex="1" parent="1">
                    <mxGeometry x="675.5" y="267" width="25" height="25" as="geometry"/>
                </mxCell>
                <mxCell id="3" value="" style="strokeColor=#dddddd;shadow=1;strokeWidth=1;rounded=1;absoluteArcSize=1;arcSize=2;fontSize=15;" vertex="1" parent="1">
                    <mxGeometry x="1035" y="476" width="130" height="60" as="geometry"/>
                </mxCell>
                <mxCell id="4" value="Cloud&#10;Storage" style="editableCssRules=.*;fontColor=#999999;shape=image;verticalLabelPosition=middle;labelBackgroundColor=#ffffff;verticalAlign=middle;labelPosition=right;align=left;spacingLeft=20;part=1;points=[];imageAspect=0;image=data:image/svg+xml,PHN2ZyB4bWxucz0iaHR0cDovL3d3dy53My5vcmcvMjAwMC9zdmciIHhtbG5zOnY9Imh0dHBzOi8vdmVjdGEuaW8vbmFubyIgd2lkdGg9IjIwIiBoZWlnaHQ9IjE2IiB2aWV3Qm94PSIwIDAgMjAgMTYiPiYjeGE7CTxzdHlsZSB0eXBlPSJ0ZXh0L2NzcyI+JiN4YTsJLnN0MHtmaWxsOiM0Mjg1ZjQ7fSYjeGE7CS5zdDF7ZmlsbDojNjY5ZGY2O30mI3hhOwkuc3Qye2ZpbGw6I2FlY2JmYTt9JiN4YTsJLnN0M3tmaWxsOiNmZmY7fSYjeGE7CTwvc3R5bGU+JiN4YTsJPHBhdGggY2xhc3M9InN0MiIgZD0iTTAgMGgyMHY3SDB6Ii8+JiN4YTsJPHBhdGggY2xhc3M9InN0MSIgZD0iTTE4IDBoMnY3aC0yeiIvPiYjeGE7CTxwYXRoIGNsYXNzPSJzdDAiIGQ9Ik0xOCA3bDItN2gtMnoiLz4mI3hhOwk8cGF0aCBjbGFzcz0ic3QxIiBkPSJNMCAwaDJ2N0gweiIvPiYjeGE7CTxnIGNsYXNzPSJzdDMiPiYjeGE7CQk8cGF0aCBkPSJNNCAzaDZ2MUg0eiIvPiYjeGE7CQk8cmVjdCB4PSIxMyIgeT0iMiIgd2lkdGg9IjMiIGhlaWdodD0iMyIgcng9IjEuNSIvPiYjeGE7CTwvZz4mI3hhOwk8cGF0aCBjbGFzcz0ic3QyIiBkPSJNMCA5aDIwdjdIMHoiLz4mI3hhOwk8cGF0aCBjbGFzcz0ic3QxIiBkPSJNMTggOWgydjdoLTJ6Ii8+JiN4YTsJPHBhdGggY2xhc3M9InN0MCIgZD0iTTE4IDE2bDItN2gtMnoiLz4mI3hhOwk8cGF0aCBjbGFzcz0ic3QxIiBkPSJNMCA5aDJ2N0gweiIvPiYjeGE7CTxnIGNsYXNzPSJzdDMiPiYjeGE7CQk8cGF0aCBkPSJNNCAxMmg2djFINHoiLz4mI3hhOwkJPHJlY3QgeD0iMTMiIHk9IjExIiB3aWR0aD0iMyIgaGVpZ2h0PSIzIiByeD0iMS41Ii8+JiN4YTsJPC9nPiYjeGE7PC9zdmc+;fontSize=15;" vertex="1" parent="3">
                    <mxGeometry width="30" height="24" relative="1" as="geometry">
                        <mxPoint x="15" y="18" as="offset"/>
                    </mxGeometry>
                </mxCell>
                <mxCell id="5" value="" style="shape=image;verticalLabelPosition=bottom;labelBackgroundColor=default;verticalAlign=top;imageAspect=0;image=data:image/png,iVBORw0KGgoAAAANSUhEUgAAASwAAAEsCAMAAABOo35HAAAC9FBMVEVHcExQgL1Kfb9JfL5KfL1Jfr9Jfr9Jfb5Jfr5Jfr9Kfr5Kfr9KfsBJfb9KfsBKgMNLd75Mf8JKfsBJfb5Jfb9Jfr9Kfr9Ng8dQiM5Ph81OhcpJfr9Kf8BKfr9Jfr5IfL1LgMJKfsBKgMJOhMhOhMlMgsVMgcNLgMJLf8BOhclKgMJJfb9LgMJKfsBKfsBLgMNLgMJNhMhPh8xNg8ZKf8BKfsBKfsFJfr9Kf8FOhstMgcROhspKfr9KgMFZkcZIe7xKfsBJfr9PhstKfsBMgsRJfb9Jfr5KfcBKfsBJfb9Lf8FKfr9NgsVPhsxIe7lKfr9Jfr9NgsZLgMJLgMNJfb5GerlLgcRLgMNKf8FJfb1LgcRKfb5Jfr9LgcRJfb9Jfb5Jfb9KfsBJfb5Jfr9KfsFGfLpIfb5Kfb9Ke71IfbxJfb9IfL5LgMNLgcNJfb9Jfb5Jf71LgMJKgMJKfr9Kf8FJfsBKfsBLgMJJfb5MgcVKfr5Kf8JJfb5LgMNLfb9Jfb5Jfr9Jfb5Jfb9Jfb5JfsBJfb9LgcNLgMJLgMNKf79Jfr9GerlHe7tLgcRQh81JfL1JfsBJfb5KfsBKfr9LgMNLgMFEeLtJfr9JfsNKfr9LgMJPh8tJfb5Qic9Kfb9Jfr9MgsVJfb9Kfr9Jfb5TgbBJfr5Kfb9LgMJHfr5LgMNJfr9Jfb9MgcVLgcRKfb6Fs96Dsd6Es9+Es96Fs9+FtOGEst6Est6Es96GstyFtN+Fs9+Fs9+GteKGteGFtOCFs9+ItuOIuOWGtOCFtOCFs9+Es9+GtOGFtOCFtOGFtOCEst+KuuePwO+Nvu2KuuiHtuKGteGJueaLvOqOv+6FtOCFtOCEs96Fs+CFs9+HtuOFs9+DsduHtuOOwO+MveyDseGGteKHtuOGtOCEs+CEst6Ht+SFs9+HtuOFs9+It+WJuOaFs9+Es+CFs96Fs9+PwfGFs9+Est+Fst6Fs9+Fs+CHtuOFst+It+SFs9+Est6Qw/KFs+DyYsmOAAAA/HRSTlMABBw4UWJ+k6+0sqx7TjYZBi2NuuLy///////giF0oH5rX9P/////////w1ZdaabTt/////+yvSKT////poAMZcc/////JbRaC5f95F/8QZt3/1bouC/XIwzHy/fzu78GcRpi+2gkmhiotUkTj5qYhJOndVfi3vPxL9/+VPPkrLPRYPkB2gOvM0g/MDhT7/zTnOkJ0//8SqQxv4P+f/9LG/Y/3HgHZYI8Tr/mK/9myCRYpPFBVQTMeES9ji7DP7/z////24MOeeESW1v///////////+dzSZv/wG8bxv//Ddv4pzhb02mzI+b6f03/ov+zyr24rruF8ZHP/3sC67hSAAAqrUlEQVR4Aezd+VvT6P7w8Q87KEVGh09IFLc2TaMDY9MwQJAtBYRgQBRUHFEWQQdUcHBFUVEUB7GggCKDO6Kj4/kbH7/zHJo7TZcEevAq4+tnL5vrzZ19uWE54uITEpOSU1LT1n2Vtj4lPcmWsSEOAnyX+UPSxk0/ZiGVTTPUfzF0NoVZm9O25Gz1F/tuW872HTvt2Q7WyblQx8U5WT6b2rX7p9x4+A625f28xy14nCKG5HJStD3/l6R/ea/MgsL8IkYSMSJRKmb2lhSUwr9VWXkFK0teNEmsFNiq6n3wbxRfUyu7FbREsRdtrtsP/zb7ampVD1rn9aib6+rh3ySu4YDQiMvkEQ7mwL9HwiGGwhVw239ugn+H5prDsogroqi70jPhXyDjiODEsFzcVxFyVspHW2DNqz5WHPpYiuIZRlY9vx7/9VdKLWIYngp5sCrKrUmwttWXFLMhDqIcsvvEjpNt6Um29oSvCmwNyR2dp7Icsj3EoVijvaML1rDuI7QSrBRbzOd3nrad6YIAzb/1bDm5h2FYEY044eg2WLN6z6poxDHuc+dz+yCk/pz1FxwMhwZe+vcEWKMGWnk0kOiLl3LKIIL4pMtXVCcaMBeuwpqUc40aNKbKup4BptzYvkuVMMCg+3AirEG5Q43GjU7W9Ztg2q2U2yqHAahja7BWjqGVyFwpuQmWtJznGG9grbU3toavBbaS5KN3wLL2I4JkqHUV1pS7rRTqMTtHMmEZuu4N8ahnv58Ba0j/WX4QSYowmrDs8A8EBUmDzIF4WDP+GFP1rSR++0NYtvFCxok69MlmWCsKaS+SqEflsCLJlR5dfdHXAWtEHqPoj41abbBCuccoXS3OngNrwsROVr+FmXwMK/bkvl1Xy7PnFqwBXVXFulb8ZAZEwd09Dl0toTMOYt9pQb8Okq1WVosia4lFUxDzJoacSKB2ZUCUPDnMIoHd9QPEuNKT8iBqpEc2CKq+b9u2ZrAml51GgnAJYlxSkYiaGb4cgugr33Rq72TtwXV5/WBFsqygRnH3QEx7esCNBLUNjB7WXBAYimVZipHv/7QVLHgmIMGxuxliWTKNhKKKWTD4bdTH4hIpuzX5DzBtfIfuNEp9DjFs/6QHNZXHJsCgZU5FEiscHADT7up2H9SBeohdyQJqxD9HguTcoWIAu6ew2/KBSewPrX21HtQwVXFgMP8CDRT1fl0mmNO827FGhtZzFTXc0A0weHyFwyBYdawAzLkqcahhkiBGdb20o0aYB6NCHwblZa5s3wampApkrFelEJtslIJ+0u1+MNi3l8UQOHrO3ChpuuhEv5nXTyA2nVdRo74Bo0RWwZAo5tIEmJDyJ2qENohJ205IxMDK6gOj0zKG4ZKP1TRDRFvfTqMfW7sPYlEDWYJOgSBKfOinONFAUkevQkSFAvp5+WGIRWnF6MddbIEg1slaq6wTzAwG8vLOkniI4C65S5XPQwx6d6IS/ZhNECGWZ3dLCeVAA06Yy4HwFl7x6Nc4OQ6xJ8ch4hLRnQPBpBKx3mfCwEHaiQaU45dbEFY1cZta8dgg9szT6MfuHYcgSi8zRKynAE83XisSgxzR7ymPgzC2ZUnoJ7yBmJO5wxNxQ9I15tbHArhzVGbRgGUOTUAYaQz62ccg5vz21olLRD7XbCyIK78vKBhIlHeeng234xWJg5R+iDWLDhcuqTzxznQsgK3PPO5gRxFH7kIoW287cYmL6oFY8yYb/RydYCEWQO7vwTb0/NCHpxDcQhWFfr57EGs28egnn7YWC8Y/DDFeDOSkHxRAcG8E9GPWQ4yJ28ziEtGeaC4W4cmrYBt6/tFPHyGYxWKtLbV7AWJLPLEVkbK2Wo4FXXX3BRcG4rIfTEAQE8TuRMp/B7El4TiHS6j3zaZjEc785abQQN5zF4zqa1kt6KfHEFsS3dqw4DvBfCzS4hzNYYBB+55gLarsuMTlGYDYspiNfkzbMmNB/PUrjKGWfKoMDM4z6JedB7Hlno+IlQ7BLXTy+lhG7aNqJQbI7gh/ZYyugdiSUox+RUkQwjo5UiyYvbdTFVHHebEJAlULMXx2mEqhn5BoPRah6Wfeg6RgVxJzyNX+PMSWNIrY4LZbi2XQcFblkGA3PtTQY3fFbqx1WizueMIKY8G2EkkaRD/u7U0I0DujfI+1ZHjPNPqJ1A0I0M59j6V5Rn+PZTZWQyu3dmORG3iqYKWxmv6iyG2W03iyOcCLWqxnEFvWu6N26ADNybsEBQn8WGbYM4bCWD4obVhRrPYjKos69GkINBXLB6XJ5OlO8gpibWtzMqgn7eyHQJ/l2LxUalwt5pcdayHvrPHCQ/ZpMHgWyyfSNoq4RHMyzB3+sLEmgnzhZ1AYexj2Eo3C9kBsySAu/nkO/AFBZVa5w8Wq/3w4yC3XonNnwGCcuPg3/SkBYsuGLCcucd7+YTnXswYOChIGEoW5x2CU8IkjLitvgNhSeoBFP2bAeqz+QtaBBqxwqA+CaBAwhm9YQBp5K+yz1ViZU/dVLtiXjUJ8NqtDxpg7JiVszEY/+yuLsZ4cZVg0YIsOtYQYxxUU+mUnQ6zJIe5YSCf6zMQibrEGe5ZG2PM8DoL7gbgTpry2Qaw5Qyw/MjkWYi3+LjjRgHL/1Q2hVKtIPFixDWJN3G4P+hWvh2DijjoMsX77y0EFfdB70eSzAvYqiD0dNPr9nV8W+Qi+/p/70K2qggaMtD0eQusnbn+j7zPEngFio+VlGiLGOtAMUDAm/I0GkhDhmeUp2UscvxdA7NmvewC3M1IsZWi4aZ7j0UCUL57+A8IpHbOjX2PtU4hBqUXkW04JEESajH6K91eeQwMPcygDwut9PYN+8jzEoiTZFeE1J0iVUaMEScWpZ/MWrLz867UPQCwqy2eROD+8CUYd2RiOl3GW9EEkGUNEZc/meohJJSpqfG1gNMKLGBqrHmm3+la5kAKx6Yk0QwytnTfB4O60ghrDEXtdF4C1gcUNZUBsihvjUfPnejCYfU9hCA7q2VYwY5OM5F53AWJUAyOiH/f6KhjU+DAoVnjQA6YMk2+Aiu5hiFVPf6RQwwT5qkN8LYVGM0Jr8iyY8vGAHTX2HbMQs0YEJNCfwWBR5jAQX3n+poWTKkJRHsSuj7qhNT10FwzaXiiB+8CKRDDLJpGt7e9nIYaVF3tRw5/aB4Ey51VWd3nhXHkzmPVuzo4akWmAWNa8m0cCvR6M6o75KvEf3kph6Kc+MK30Eo0EZiwTYtqAW0GNqN4Do5aSCzwjyzLjuF+SABa8UUUkd7cFEOPShEHUTFfmQBB9uRvXXVq/cbgPrMijOCTQ5yHWndnFIoG91g5R0vNIQkLjhT6IeXWCFzWDVOtdiIqrxzzkmFWKqyH2ZZ4sCnidJCq1CgI+6yqsW4A1YOseT0CtAlixHn2rQfu5d7AmLLo5XS33tUVYobxHnkEkTL/ugTUihfbqarFsDaxE6QdK0rUS6dOwVjR30qjDCX9tgGXru0RzqONblwlrRtkXGXVE4ctVWKbE3wUv6qgv62ENaTnnRj3HlQ9PYRn2/SQZ/qu5blhTnuykUG+aftADluUeFDjUs7cmwBqTeJjCAA5PWgJYcueQ3Y0B3K29QFiztRT5eGEGmHbjmUtW0DCu2mENSjzmxkCc8OlZ+wKYEHf1r+NCkKuq93thTbp7TkaDadlZVd4PEWytq2BlDg3UuQRYo5oO0iIaKHZ118/PWxYghIWJqUu7VLeCBiI92g1rVhl5OEmQGGFnxU9JN/ZDgA03Gra/fCvwTgzCKaz/CGtY6UaWwqCclCx/mqxYn1K3mGPr7bXlJNW9SX05+asqU9MYlPtRDUQUf2Mg7971tra2+ZTkvJ6MePjfiut/klte09H21ee6RVtLPazI8FlBxBA4luKLVNrXqCiebFqVeYrlMASFnrNBWKUZefMVk8ftPpX5P0VqtvvT5Nj2RXKFj6aHT6ZSd+SLMi0z/0dWafb25pMbh/th+bp/ZhoxPGVmxoXheRzr30EYme0fKi4KjJsl51gWp1l3kXy7ouZOHETZR1vJAYXmKYnzkp9e9djl4j2dIy2wXAvV9+kZXBGOPtcAYXSnv6wU3BwG5XQLM2NTfRBFEx82U7JnBoPxSryw8/LiH8seXIV/8yIumxjhk95N21t1O08jzi5f+HAGouTqX0OqR8QwnAxzKn0/LJNtlHHj8njtjqPtENrW7TsFCSNihWPX+yAK2g9JMoeReCl1Lv0pLE9zw3vZLaJlLodckZMJIdXXtNJONEWiL9TNwgr1lVyRFTTFI5zKgWX6WP7SznBoCVdkr2p4CKHZDgosmsYKo3dhJRbyLvg4NM1O/dUNy9Q1fPmK4HGhSQolXEzryYTQZj9IPFrCXKvJhGXb9hffiFYowoUkWLbHHw5QqkfBiGYoofH9lgwI5+YRmkOLJOFQPyyT7aygoEUe6nozLFu9bftmiXazSphQrMM3c+D61VkIy3auCK0Thbk7sCxTj+zLOuo52gcrUF9Q8+qCxA9iIHHGyVKyTznbmd7bDBE0XHNjSIqCIfGtw7AMKYyEoXgVEUOSf2+BlYm3zVOoGeQYQXjBKLdrx0qqC/ZBZOksO4hGMxLFCC98LOvLFhhKCtZskHqUBJa1ZXPBz9jcMv1ClqjsbJX3OIM2Kz7bCyvUK5C/OXl+45bnSQVN9WBODeNEA87t4/Krzp+uzuvpyXv+ufBlvtNHcWjAWq/VJhi7e508fXzyaNu96qTE3OqRN6m7s+x0kA3yINP6BFYmUUYNnwaWPOenDYvuES6+qrm6YQH8SuMTT1dcUVmvsdYiWLKdNjRQ3HLWpqm79aCJ61786T2rOg21+AstUYxlryoFC3JfSxiAkg9syVgAg7g7KZOyBwN4DheABVuyA1u5eGp0qhuMmm2FbwXJMLY290Uvlmd3F5iX4H/6aAmrHswbhxDK6uZUCfXs586AaXmGc3S3++hAJoTQ1JFlOCGSq+qjFqtxh4VY+08x+lYueU962GUp27JTFpE0KFQ8BJNuHGZRhxO+5C5AGL8VsnbUo+ejFks68RTMWkjNRh2J+eUmRDDRKThRx9cG5nzcwaAOJaWMQwS2L7QLSQrTEK1YzrfdYFZDsQtJ7mtTEFlpzRUKSYp9GEyZ96GOfNZmZvgHTtjvaT0TpVic2A4mde/xIEme6wVTelr1x8HU3H4wocfDIcGrvtoKpqQ/YpEkbCqNTiyRqQaT/iPoWx1sApMSahkk+TogsvpTDiSI9M/1YFLSkK6Wi2mITiykO8Acm/4PLYy+A9NaanVja/rRDYjoNI0kIW0WTEscakQCVVsWnVie910m32lkdEd71p4+arlgJ2oNFl2Ogwi2Zv2NBPXSLFiwqH8aPftzdGIpnqsmX2l0kYl3TYAlvdck1IjuHktvoQ0yD8bBkilGQQ2bvy0qsZDpNDeTKa97IWUYLKpmZlBTfHIBwurOIuM2traARfMCEnyfoxNL5OsgsgHKFf7T59ZeR5959ATC+uxDjeJYBKvqX/K6obUhKrHQ+boaItpUpHuPtR4sK9O9Eqk+g3Ce1rKoEdaDkaXJGFEdiU4srKyMOLZajhO/rLA2WIbFYheG/dIXIYm83cku72WhDgE17oq46MRCJ19SD2FtoVGjpoIJTxsKf04d6Qe/hZPFqJHLTQ9kIR3MmEi/3jFyE/ziyRmOuSt3oxQLFfpBL4SRWeGw+kkH2xdZFlS5lRi0V8nr/0y4TXxflhP9PLXjps5yrhQzjHxsozaC0gXU0BtXHIucTC3MImW4yC/2mBlYw9cYL37FvvhMDC1ivEzfvmluhk6UzQysd6MvOPxKevEs09+PHFrU7rioxcJp4UteM4RwT0Y/F9tuppVnaRX3FMCSXLeLaNAAIf2ikjuyeDOt6KWV5MU94u0c9OM+Zaw0FsnNjCaFyLWJWHh7RaaFVjgopMGShz+ypqZWeTpZSUSdN9PKh0sa9+4P+kEY31Q0Y6FodzwofwdG47XEqUfRPVOt/NjJDUF3UFTo86wnyozpgUyMK8O+emHMTkQ/H4VYJNEt750veAgBbjgVXDKjZERu1Yia6U8TsMRGbOKdt29BCFNFXm2g/PgRIogf9SHhxXNYkqyiX+P7hejF8n/EQDp1fWBDKRAaKJGYiqfLxLgiOLPOaEM0v1L7JYct9K1C9GNSI7eikSQ0wJK7j2aIP058lGKRFA/Nnnj1Ie9J3x9dmf/oKEI/4XykVkONSLKTV/nTHOhXvHHrD8HcaqqiiFjPLbbilDuw5GOttiwzMzdWGmvGGbSX5M62Y9belxUvv6o4wRHjYQR0FsK0Mn6B/7QPNcdvvw3uV/Jp0ccRWlXQqFNM7oA6efQrGlhhLOXECUbEoETOWemh/sENEhnbQfPkQ+erwoZ6XSv9zbLBos1l+llKyRDTwRFLJOX3gaYsb3taSd7+cK2c9h7QpJDzIkytMBZVNXFZrkTzlOPdsORpyetsu1sQHjwJ3Yq/kAFk3eMcWkKRs5XlzNECLwhzSUQrAXWm+WQgPC9GP/nNSmNVwMLIMQZNq9zr30xmbvr/B81eeVeBtg6GbQU3s6bREuYk+FW77V5E9NrtU+T2ijTtuAekHqIllbriWJkAN8Z802iSR7s6M5W9tLq4d9lCtUoAnfh8CS2RN8GSW/7XTp3/rVUW2MrJ3wv8sqqIS6i0aMSC5i3EbNLhURVd/s8Iuv1RPI8Wjesg2Uo7XfsbrSDnQbr+QovinvqnlS9CK8j4lZjed11UYgH0VsmUyVhL25AJ8gOVjVdyjK0chlZQutljMVaHduWDQqLWyNdWhu3VveBzIUc5FnSV/05TlkZWosdFhGHfdmSFGFeksr0SWkGcQY6fkFDjlGqOBmm1OrEAxpO/MPwMRuA59XRpx0bGwkGO4SK3gneWt1mXtRmsK5GgODzGbbtBgd0b3W2W33helSK7FQzH6b9gEn+iEo2IVo/BqOm2Ey3hX2kzFssYxrQ9GYyG/0Q/+7MoxCKU3vjwgJMZT+hgiug//Z1/YbkVtCtWj7Pe/6HNYiOiEbkOGo2Qx1mfoxKL1Pw4/fJmTmZ4B8VK3FfOSpZop/ztP/3t38sPWmwFDQJqnFQICnka3u1fsio6dCtHMgTTxpBXI6IWi7TvzuLGdWOn9p44/uvx41l7934ScYmXOEJuP+YetNYK3tBE9/zd74PZ8f6tC5eInl5Y0vdAxuCc5PaK9MpBPB4ysNJYY3EQSn3f1ozHCY9v9fV1uL24RP2F/A6ZfTBoq3NkK9JJcurKuq7ZoB6Sp79MOhC1iE1QmOOroDd4ODFhWXcfZyw+rLxIXM9qJCdvK7jvsNQqnrgp7wr9kEUKeT3rEpC1VCvjCq4SbydKWeNgXQJxVMuvAxMmOIW47HAXNAlnmSCtEkJPqEQu/FYIodqhrYfs3g0AYddEJ58c+pOhutPgZXhMxDI3suo3N4Y6eZ8gahnGlcEzcgvwMi7kEnpn0M8xDLpagmFchWzVRX7YXZhfnViQSp68H5gNVytcqzLiqjIWdUAos5tZ4t/9B/S16LDbK1KvU4suytWrFGuKCCLahyF0LSZMK3gue4ndai6EVEKHnpTj3VEh+PUro0IZ/ZyfmlYp1m/kNTvmZKmxlol1ELp2O9Dv73BPhizavaHnFP7YSZtr1b1TMkzWtQqxMsccxmcFiVoyOa7MPRrDhPtlcq+JbP470Bk/SYvht+3GG9JIJ69WLKiTUcO8ygSdli8vJEVUnC/Ohms1u9uOGjkJwlivosaXAnrjnS9YlygqPHMv3Oqw02m4e7kqsfrfOjHMhGTvSvZIdvb2+TMQRrKAmsbJfRDGgJ085Tk8Edj98x6Kd1Q+WIQwUlXD5elViGX4U3sm4w0rTk/1QDeE07SrEjVCB5DC7vSxqDMOArzLKX9e0Axh5OgmKGGSVjFWL6ugRrX+feXMozJqpi+2QFh1Pi8xlIVksKpvksxNHXi4irFKXzGoEYtHwKKNPhE1QiqEVzbpQY3zWgFYk3lZRoIvGVYjFjkTukZ61AOWNFAcarjIr1jcE1Az6D53BixJIUcmen7cv3qxDBcqB6nWx2DBwBCLBOE8RLK/lkICf3AbWJBeNIMEoRxWNRbcucKRtRznEiy0uqi7mSHd3goRVcteJNBH4sG0atapK717dlVjGaYpGuTvXwWThvWtkL4HkWW+KkKScPAMmHSakpDAvbbBasfat9muq+U+nAemjDxiyVaDTEWzqeW8IiGJP9sOZjycl6eRRBfCqseCnkZOV4ultn+EiMoC3yyVhu6YHCCqiCT74ZFSiGjiCK3o/6hzG75BLEjJ9iKJE3bYIILcOVpEkldNB3PiOgUkDUp//twE4XWN7CpGHcl5Fb5FrOaTquH76YVnIIyM9R4K9bLXlYJJ3efcg0gS5V01+yEMWxXDoo5LqIFvEgv65phB1OHU1g9NIX+p8KKsoF7Rg31gWsEQi3qSMJe+DYLrsl1yMiLq+dYvfKNYcKOVGjQs/sX/5MaDwbukTUE+aM2fuwUWNLidGMAjX5hv/wgGZ+pG2WIFA6hHZ+FbxYJE/2wpGq7Yvnf9VEZZpn+vH/94JC3fwXAYyHH/BlgyUsRhIFZmT80nNe3zr86z29pPX/7E2F0YSNixAb5dLMgdMtZCr6S6ub2vUks+Jye/KVlXlT/tkCUvBml1Byza+CeHBi6PSnk3H302fzr5XkrJpZdZLMNwaER/6YZvGQtydwa9Dy0qkl3OlnlezZbtkiJiEEVEK9PqKBaDEGdYXsiWeUbIZiiny4tBCKPd8G1jQW+4r9h5vRgS/SUDluH5FQpD8Yb5PcXXWQbfOhbcHKUVtIzzHe2HZUm8IHvRMlZum4VvHwv2lfAsWkRR15e97LeO+qbRouLD5QDfLhapYY+goAUzvrM5sHyzG6cZL1rgpI/cgG8ai9RyyeFGs7x847N+WJH2UYFFsxTh4umHEBUJK4lFzmKkerymUrnV0R5Yqea6C3SluVS851ICREnvayUasWB25KzsdmEEikN+kNcFUdC/cY+v0YsRcMWeIzaImh4BVxCLtL/8QaMsiRiSKAnsaF4zREn/57NMMYehuTyC95AtE6InUV5ZLFLzwC/5DpVVvGjgVTyqO/+8rQuiaDzv0PEiWRK9wY6K3QL7e8oNIHzjWEbvGlJ/lBwCz864xP9ycSwvOLgD5xfjIeqa0i/lexjVLSnE7zUygttV0WF7CvDtY4W3/87Is1e1yHrc/4dqZI//+Or8yONx+B95V7AltSKfW/o9lv104HJbQ0szkFY/lnlxZbeeDD+vrq5+Xj1w90xZHPyPNW9rac/55/caEh9vHQfCqsb6buWxvsf6D3xnOtYm+M766yjffY+19mPFZqzvbOZjfZdkPtZ35f+bWJn7+jIKhgcGhgsy+v5fdfcB3cSVLgD4N708ON42QgLSbFmr5KRIdopFngljqngmoe2hp1DTCzU9sPSa5ofh5NCetrCcjbstU+yRG8UalRkbhuJxN9WYDtvT4/+qeYos/L7DqdT5uf+dOzP/vf+fo6HDpWdkZmXnfCs3L9+eBB1kGwqW/tdp4YjTvcvnb13/9J7pqZZvWWfsGTPiqVX97k3qsDgV7D9w8FBhURHjYByO4qKS0rLyw0fsHR0sy6xxoNLcz/eN+GS4NkVjMRis3zMYhpvMZstvpsxfEQ1hZ885eqykwsm6GLfb8x23m/FyTt5debAq09aRaWh5XGWw+g96KFVrQoeHoAOfYrVLd4yeCuFkO36issLpYjyCr2K3g+VLTp463YEj6/ENoMIrjy4ya1KpoAwa7Z4nXoRwse8/w1R7yUBhxYzIVh7NgzBaSKThUBWhmqJpv+9nHG2ZuAzCoaaqVuTcQmjF3uq6+gYIm346tC1kz8ug0IqJJp2VksCaqN/bH1RrbOJdxYIETHXd0XwIkw8oQ1ueTP89KDK0ZzstUrFU86JBKufGzIMc116oULgqmyE85qHDc6z65aDEk3+VV31gMa/5AFQ4Vch7BBlc7NlzEA5pczSoHHYVyBc1elMsJZNu0VgbKJRRz1YI8niqz+dAODyPDuSgtypIwSfMcZRsliFvrANF8pqcHkE214WLEAa70Qw/fmAayPTx2s2/pRSwbp7yf6DApUJRUKCF4S+ng2qDE9FKaEZ/kKfrdjMVkEEfk0jrdLTOpA+y9EqZ8BHI1njB1RJ4UVXBsaz47Q/O4Qmciq1XakCtSXvaJudkeqXMspLHAh0EZYjV6ahfr5+95I03lsweNobS6WIMAVvKfiQ/VhUBYsWIIldSevXa9fIbN8uOVTpE0eUJEM/qkxmgUtQwtGPJOMUGMmxZ7R8rq4mesf6lh/v/9GV1bpf+D780bEaKJoHylYijJS1WXr9YuUW2sOzWpYKMJPhezbms5vraCtYr+Gm9rjoTe9JK8/Ce7Ua/UOn0O3ps8Yt4dP/598cY/ZZi5rVDQYbj/uOK4YuuNWeCL/u3T42i/6rVecMG6ryoRzO0uSdItnFNos+4StDpJwYrlElbPnt8bLJvtJbMBcnyCn3nKzd7u7wBAjt96pjo8s1E/g6os+45DUWcuSRV3wEUabxx9jII4ZU1Oj1FGvACSJXRxPrEinPUF0Bw9lOl1W7fnG0GTGX/HvN8kGilzxNOQsrbI6MgpLljH6QpgkH6EQv1rQLW4nY2HYfQTh91cALBW5IHqnwQl6qgj1bXRcPJyzY/Ok/CvddnsyQ1Xmrbz2bWQ8TK67pjh3ZlV/JkiNlDNaBG1E4jJXvWmrw+kdwqGb8vCiRIu08XR/b7nS3l99nOFVYQF83d3g9SnLvp8xzpPACqdNfhV07S9uGu0ibjS45f+ghINFZvoZBkaed+XeGJWInnc0Ga9HIyWkxdVvimeMo4LA3ateABPRGractBspFktMY/3QXa1ch5yFjlgVRJ5dVEtNiyKLXvlhHzPmjXVi2FWDY9DDKMjP+Skpf4Ncc4IgelxApFi8UrrmJ2P6ixgRhaX25aCO34DHdHolJjR4Isq4i3qnG/mwrtqOKLUawqbsvLpKQbTgHhjqWHcWhpZvaX0hhZRevMrVpZPdbtpS68WHLJHRr2Q2ILGlqiuqE1eZiROJjinTchlP6LDOhX0zsng0zjHjLiLP7NPAipmcd55DwKcuXd9uKh9bdoUKMf+SKFDn0yzgtafKkPTgLZVnwYh4dW6Fky6m8cvlQlK6VTIgq3h8sGZVBiICmhojV0lh7f+v8LFNiNE1kzcB2EcAR/RmUuHAf5kspEfEO8orL0/m0NhdFrg4+XR/C6LEbZoUEbfx2PdtmYFkIIl/H8zNeDElkXGBTwkkxQZXCMgWy+9PYyCMz2Kxo9EcY+DIpsS0yW+PLfXunF11kAitTzOOJVoM5XmykiWpoPxyZBIG/hbgqx66MVroQHavDCdCgElVPhQZdZDsrk1aGhxZWBOuN20OTrqbjEvW8FzEIjGhNDngWF8NF0Cainl58TTvywkgcKXWGFnzkKz4E6kx7UkNFKSFm9cnLoe4EeNd+V6S3cxJfuCcGkH0OLLPEaKJXt8qheaiHd/E7G0dMjFtqAlIZPDaVfAMX6oPcWpvW2oPlThPJHxUXWlLrItZpK20xfUqTkWM2UhdGAfTTDSjYIUKo7OoRoePCTqPejZ2hGTfocRXnIXQXVeqQY/D9BxK9fiY8wXI76EenROb+y4RuF1fIkBHGnFQ2sMhsols0Vo0nLDqrt1v4cLbQK0v1m8TNTN8APRqN7fkpvUAE3EN38CCCoDaftOlpOsrdAuXOFjrbny6I8UG++yUL5i9MZkx/q1XPsyG/tiG9L0sRBQMg/fPDkjap88JN75/rN8pxoIPRMQd8QewIh88DZsh8UonmZOw4qXOXa/iTXJQiDL3ahtoRtklM1KUNiNCaTKQ61GdUvBKz5PM+LPH++GUj2ei/PstXcmQLARqKVXezXgJ267eTFH7hbwrXyvozGaGszhMPgB3RUEMkJ38LzmXUqIFXsD/ebCrYKsJqyv7uFb3mclcTFLjNY0e0QkP1ihRBARa0dVPgHmuH5WxAWKyZoJRbGxM3qQqyRf7pCL7l0vNX608zaeg1P0FtQmYUGd8HOqORahAC4qzZQoRHfDi9DeHR5IlFPSRH/HF6Snmi7bTlPAL70n4eJpyIX2tz7uCXw6raZFwJir4Eax1Eauq5AuGwLfW4R6pyJ35O70Ou1dFRShYqA+ItEPypL4E/h9awQkHgD1GgocndEsGBSn1hTsrxg2Uu9bZNLaQYaJ2h9I+IhFz0wHq3YULCuc0GCdaITBQt7eG3oc4twm1G/YLlK7Wi2dqFgHcCP7mP0gYN1JViwyjtpsGDDyu0pmtAzffxD6A1n0jU28ORSgB7u+P1km9HAaXjAGWTOug5q5Do84Q0WNmrbBE1KXIjhNfzTofh+//PHzGIiJrZr1T/PZZUZuKx8lgWVs6KMznIwgYNVBmpk8x0ywaNzi35D05Zg48vwF/zCK73s7z/GqrUsnXyl+2NaMWwzIB9Mx0sHQG78XcDwfUOFZhZl9B3oAPO+2DtrvHmI3hDgtFGr5XNATp/5O+fxuLnWM/lAaLztdHg8DF9xEbCHjW3/C7GzAck/9Hev50e4YKgyH1S4g1fwh6FjdOn2y4m/nm4x0QPMuiE0Ovs+wTQSsJqLTR5GaPpHOvjIqy9kmJKb2UAYPYBoPo5lHD3PMO7vMMV4Z1wDqIAfyZ2N0HFGLej2zL6v+i5e3Ps5A/pi9gKQagqOFNRAAKcbcs+Bj17oucqvmc7prCPfyT3yN/TOTlWZQk1p2zOUh8mFSNiGGl7GqNlVnYZWDsn0wxBEuTNMa4eGOjd6JM+HSPgctXMyLPoYFHtxqQHdKrpCEIfxPexYDShWxaPZrzQKImEoWh0l6FaCYoM248ZBGyCI44wnPNlzjUP5fAMiwjY7ETdYt4FCc/8QL+noroxCBl3kHVAqs4RB8/s/IDL2paDSrKVdQaF+49GzunYbBHWdRXlYmgEK3UJZ6PbkQmR8Hoeukv4KFOqdgvvQbYGgDuOCI7E5HF/CKkrTITLSBqL8sexRNsWTDbRiRyQBhP5wqLa26hRbrP6zoepdBgqHVm9aahM921UOrUsVDq2aWjSwPN7jECkrcB4aPvxMWfUcbh36wMuSKkrxrCV/xsIrkHSIlKQRuMhRNyUKZBt3P241lrgYQskvdOAqyTsgX0EJ8Ufcgsh5NjFZXekf2aj4t5pXAAtcR6Om9C+6jBXIGprI+d+BGqLt56sg0yu7DMQ2hbkyaqtauNLT8pMQV/BWX4ZIWqklO7u9CbJMXR1P7FL8o4SyPaT6erTcHbCMQNZ4RdK45zQUQu9cBzK8eb+OkjOw8NBSUv6Xe5vY1elEvztisxaSslhGtO7dQVOINaYfYMFmLcTDHwDp8s5zOFbeSM1YaNsdccHJm5cMlTyuyFhR5q+hfacrXQLi5o4mSR5XKFYRfSzEu3csPs2lPgJJuv6VjJX+wQUK9ma6+Xq7xPnqNhGrFvFQDUTcaG0yhdGvLwQJus/UkcVfic+AJNedAlbsPCRlmk6/5SB37DMXciHy5u40UwSNZfdGaEeX/zb5FDSZpfaCP+dbLMLePtXub807yTMtRIz5i3A3LHhcQxEM2gnLIZSoZ7ebU8li+9iBXUCi7AuMgLV4xZtZEIr9VglbLBD46zaIILyytFCkGE2IQ+qiX5kSq6FI+t/9XubKEitm68rzQpxUUMs7BEKLWHsa7pKVOoNfta5lyrP/E/AeuG29xphAkSwx3UGGy62CD4avO5hTAwEU3CplXQKpxXW7Ae6a3f7d+qxG3Wtv/PGjJECSpnbv83aiye/XfmkaC3Kkn20VfDGsq/RE9jnAarKqrpX4nwnYUoGfKiPO9lKKlfKVrNfRv9nRd9Uf+63o33VFv+6je+3YQ+uGB+pxuA/ksZ9pFfx4Kliu8urlfzReamhoOJLdfOB6bRHPofmtLVaNcFe9hFr4InEmo46mrTNmWGlaZ0RbERCLZj7IlXGy2iP4K3ZwIsuLRUVFDp4VOZdb8NfiutuxAtv8WD0VTKrBkEoF8V78rpUg3+Qb5PEyWLHbzZChxMTbx+Gue+RdE6UAPW0wKBF9VPS2CLIV87UN0Am8uH1zAiWTVbv2M1Co+bao4MS/s6ehU7h3r3E8JYvG+NRGUCzrkJORN7jEuotR0EnYRj6uNVCSfal9fTCoYT9wgS0WJPM6D+VCJzLvKYvOSkliSNl0372gUu5JkROkYZyFF2ugc3lxikZnkBAqOm7vClAvan9TNecR2uXg68ozodOxLZxoMOtDTvUJevOHez+H8KhpPsSxjBCKx+UsLG+Azunz+5420sODpKNVTxvHvP8ZhE96ztmSag6XUWLuimrvsVuZ0Hl16b738fGbY4YbrEScvtQbB1ie3jp4FIRZZlVZoejkHG4iIz2MV3R6ao9eSodObujCfbMf/0v8ALNR8z2dVmvZM2bJoG5/hg5xbv/Rq4VFrlaec32PbeWZktIb/ziSDv8/pH28rPuqF3r36dOn99cv9ej+4ry50KHsednNty5f+d6dw425+VHQvm8AyMyZjy3COasAAAAASUVORK5CYII=;aspect=fixed;" vertex="1" parent="1">
                    <mxGeometry x="373" y="398" width="44" height="44" as="geometry"/>
                </mxCell>
                <mxCell id="6" value="" style="dashed=0;outlineConnect=0;html=1;align=center;labelPosition=center;verticalLabelPosition=bottom;verticalAlign=top;shape=mxgraph.weblogos.github;fontSize=15;" vertex="1" parent="1">
                    <mxGeometry x="1062.5" y="351" width="75" height="75" as="geometry"/>
                </mxCell>
                <mxCell id="8" value="" style="verticalLabelPosition=bottom;html=1;verticalAlign=top;align=center;strokeColor=none;fillColor=#f27521;shape=mxgraph.azure.git_repository;fontSize=15;" vertex="1" parent="1">
                    <mxGeometry x="235" y="482" width="68" height="64" as="geometry"/>
                </mxCell>
                <mxCell id="9" value="" style="shape=image;verticalLabelPosition=bottom;labelBackgroundColor=#ffffff;verticalAlign=top;imageAspect=0;image=data:image/png,iVBORw0KGgoAAAANSUhEUgAAAOYAAACJCAIAAAC3qtNjAAAAAXNSR0IArs4c6QAAAARnQU1BAACxjwv8YQUAAAAJcEhZcwAADsMAAA7DAcdvqGQAAAASdEVYdFNvZnR3YXJlAEdyZWVuc2hvdF5VCAUAABMMSURBVHhe7Zx5dFTXfcf5u01sEAhGo9n30WhhtGAWG2MwpAazGTBgMDagDQE2YOwkp3Vst+c06Wl6jk8b7PTUaew03pqmCQ0uYMeO2QxISAhkgYRsGYtFC1hC2+xLv3d+w2QsCTBmKHNnft/zO5f77nsj7pvv5/3e774ZaVQ4cQqFQkM74bA/GPD4vMFwiAIjbq8HLUcKhC/gH7IJu+Eyue/3+6kTCASARDAYpM1bVMKQpfn5fD60mCJal8sV6587d+7YsWP79u1777330PkTKyVUU1Oza9cudKqrq9va2mJ2Dw4OovV4PLERahOihCHrdrvpMuru7qYRqL+37z/e+NXihYtycxx6rc5msaKTOXacUW/gSIEYlzEWhsJWnUaLziOLFr/16zfdgyJVkXp6etACDMpfCVEiCwOot7eXOgMDA0eOHJn/0NyMu+62my0IlSLLpNNnjsmwmczabBVHCgRsHZ8x1mIwapTZORYrAptLFi5C9o0xGkMiuQoDVCpQrHbp7+/HpIuKioxaXa7NbtBop0+dtrGicvuWrc9te+ZvfvDDHz77HEcKxF9//wcw9Nmt26rKK6bdMxkQO6w2JCan04lSARgQDwmsCqDEIBu7gFC+gN0LFy7Y7XaNRmMxmadOnvLb3/xX0B/4c5XOkXoRDPk83nfffueekkkoGGB9Tk5OR0cHYEDFSGwkV5alywjFAG0uX75cr9eD2jlz5pw/fx4jmDeOocUZ+sjHrBQQ4YgOcKTFFhZhs2bNcjgcFotl9erVGMGuvr4+dLxeL9pbV8JqWUwIlxQ6J06cwEUGXqHmljOBUNDt9dDjLa/fhxYjdGVyyB5kJdlKHX8w0Hj6lNVqBbUGgwEwAAmAQdkqIUoYsriY6DL6u5f+NjtLiSXkP/z4JxiECOXhousSB6CNHkOnzpFsEbGJ7qWA71r8wcSI4cEXf/SCOlsFDP7pH3+KcbwQ+fhaGNysElnL0ilVlJUrFVkOe84He9/HOCY6fK6Dg4OxQXoVNPwwVrIp3iN6+Bov4XSE2j++/wE9zawsr4C/qByiRyRCiUGW5kTt/HkPa1TqImdh+4WL10IWokG8hF4VG2EloeAjZRZgCr+uk2UhHNx29svCiU5k2SWLH8E4vRbjkaNuVQkrDCCcDKb1vdlzzEYTZtzzVTedQ3T314W1Gm4WdPJoUVRAvoCfIwkDJsZnFvh1LVuF36EQkM1z5AKDpY8soXG8BKL+LSphyNKVhGk9PHeeyWAsyMvvbBfPOCA6IF4Bn/9rpRKKeOqwklMRj3weLzpet4f88riiT6/iRY4TsgadHlmWVjiJ4hVKGLKEJmaGwgClN7Lspc4uGhwiMRg54X9/7Rfff/a5jRuqEJs3bkIRjJYjCWNDReXWp7fApu3bnkG8/eZblHSu5e+Fc+eRs7CkQZYlZGNJ+taVGGRjU8fM5j00V6XMLikq7r78FQ3GC0eKg0PhU582FhcWZYweoxg/QavWGPUGvVanU6k5kjCwONFptGhh1l3f+S7MbT7dhFwbdXOYkGUn5hegll2+7FEaiVXDt65E1rL0eQGQxelNKi7p6uiM7ohT9CSDoZN1x006vdVoKp7otBiM2mwVWrNWz5GEYTOZ1VnKXJsdZjmsNrPe0AJkI1lWuDlMZ1u/wG0WiFMtm8AUCyUyy6LFxUTIFjkLv7p0mfbGi47B0bW1tVazxaDRLnp4fm3NsY8++ujj/ftYSaoD+z/88EPYtGDuPCQX1KmnTp2CicLKkZD98mxrobNArVIuWyqeGMTwiOy8Vd0ZZAOhYHV1NVaUdrOlqrwChRGKYPwI7GUloyKrlKA/ULG+FDdDhz2noaEBJqYRsji6rq4O9SuybPm69bjFiF2RvaxkFFkcCpc+uVZ859BqO336NAbTC9njx48jy6K0x7uA9wLljsszwkMTVjII1oh6NBRet+YJFLXIsk1NTTAxjZD1BwNA1maxGrU63Gs4yya7It5RlkWWyc/NA7Li17zSKsvW19dj+YXzX/v4GtSygUAAb0H0IFaSCWUrsixsWvPYKmRZLL+am5thYnohW1tbazIYUcuWrV0nPk3BrsheVjIqap4oDMTvzNjsaffEAEcfO3YMyy+TTl9ZWhYKiIuYs2zSCtaIWjYYQn7RqzVYfjU2NsLE9EK2rq4Oy69olo08lI79/jsr2QRjhMVXsyyWX+n4xICRlUgwRljMyDKysgjGCIsZWUZWFsEYYTEjy8jKIhgjLGZkGVlZBGOExYwsIyuLYIywmJFlZGURjBEWM7KMrCyCMcJiRpaRlUUwRljMyDKysgjGCIsZWUZWFsEYYTEjy8jKIhgjLGZkGVlZBGOExYwsIyuLYIywmJFlZGURjBEWM7KMrCyCMcJiRpaRlUUwRljMyDKysgjGCIsZWUZWFsEYYTEjy8jKIhgjLGZkGVlZBGOExYwsIyuLYIywmJFlZGURjBEWM7KMrCyCMcJiRpaRlUUwRljMyDKysgjGCIsZWUZWFsEYYTEjy8jKIhgjLGZkGVlZBGOExYwsIyuLYIywmJFlZGURjBEWM7KMrCyCMcJiRpaRlUUwRljMyDKysgjGCIsZWUZWFsEYYTEjy8jKIhgjLGZkGVlZBGOExYwsIyuLYIywmJFlZGURjBEWM7KMrCyCMcJiRpaRlUUwRljMyDKysgjGCIsZWUZWFsEYYTEjy8jKIhgjLGZkGVlZBGOExYwsIyuLYIywmJFlZGURjBEWM7KMrCyCMcJiRpaRlUUwRljMyDKysgjGCIsZWUZWFsEYYTEjy8jKIhgjLGZkGVlZBGOExYwsIyuLYIywmJFlZGURjBEWM7KMrCyCMcJiRpaRlUUwRljMyDKysgjGCIsZWUZWFsEYYTEjy8jKIhgjLGZkGVlZBGOExYwsIyuLYIywmJFlZGURjBEWM7KMrCyCMcJiRpaRlUUwRljMyDKysgjGCIsZWUZWFsEYYTEjy8jKIhgjLGZkGVlZBGOExYwsIyuLYIywmJFlZGURjBEWpzmy9fX1JoNRr9aUr1tPrCbmhFi3Qf5gQPwTCsMsWGY1W86cOQO/0gjZQCh49OhRi8ls1huQZQM+v8fjScwJsW6DYI3P53MPup5YtRpZFsY1NjZiMI2QxdG1tbU5NrtKkYV7DWfZJJcv4Bf/RLKsNluVn5sHZDGYdsjm5jiALC5cvBfIsh6fN3oQK8nk9SPJ+mDT6hUrFeMy8xy5TU1NMDGNkEVhcOjQIZvFajWaKtaXhoMht9udmBNi3QbBGq/X6/N4S59ca9TqcHvEUgTL5TRCFkc3NDRg+YUsu/bxNVQTJOaEWLdB0RtgKIyFBwoD5JqWlhb4lUbIur2ekydPGnR6ZNnK0jKv24Ndg26Xn5WUolq2v7cPCw+dSg3jWltbcatMI2RxNJA16g35OQ7EyuUrZs+evXjJI/NZSakFixbCoEeXLiO/LCYzsmy6FAZRBUNNnzaikLeZzAWOXINGi9sNWoNKw5GEgfpVnaVEfgWvORYryrmW003XqeRSEdlQuO9K79onnszNcSDXoi0uLJqYX+DMy+dIwoA7k4pL8hy5ZqMJNpWXlrkGBtMLWaw9ccKojb74vLWzvaPjYvu5L9taP/v8fNs5jiSMz1s+O9v6BToXzp3/7EwL0g3sG+wfiNo5TKmZZVEbIAI+P/p+r486+AmsJBSsgUGwiTpR+65NYAoiGwiIz6x9Ph+Ox4KUBr1eLxahHEkY4nOEiGAcXCbL4B0NDlcqZtmICFzxIUKCToZ1m0R0wq/BwUF0YgRfSymILDD1eDyx/Ir3gjIufgIrCUUekVkQ+rglQtHtYUrZLAvh5L92Pmg4kjDQRAyCv5RiY+lmRN12ZKMJLyQW8u5BFzr+YGDEGFLixIfX70M76HbNX7hAZ9AXlRR3XuqKP4AjfaK55QwAUKqyVzy2UnzhKxwCPETIiBHPWHwARQBJyz4g6nK5BLLEPqgVF1NkGRj0//kWcFOiK2/u3LmZmZlFRUU3rHhYqaquri6n0zlu3LglS5ZgU9D17QQmI5mUkBUDodAoIhdqaT6z/+N9Rz45/OEHfzy4/8BNxccf/el4bR06nxw8NHvWg1azZVJxyX++8+6Bffs50jDe+vWbE/ML9FrdnAdnHzpw8Fh1Tc3R6m/B1d7dewDk4UOfnG39gijt6+sbRUX0yZMn7ymZpIl84yE3x2E1mm4qzHoD2uwJCrQ2k7nEWSg+iTYYTTo9RxqGw2qzmy3OvHwwADaAhEGjxXgMmG8YhROdWrVmQub4kqLi06dPA1Qk7Ojya8+ePRmjx9gsVovJDHC12aoRQ6dSjxgqRRZmhvkh9GqNYlwmWhwffxoc6RPqLCXc1yiz0UcLZLFp1OqGYBMLomt4KMZPAJBI2EpF1u7duym9jsIaEFXCzp07gTOgfnDmrM0bNz21afOI8fTmp0aMLU89/czWbeWlZdu2bN1QUYmfUFW5AS1GONIw4D4CwGzcUIWoKCtHf/u2Z4ZgE4sYYENi69NbZs54IM+Rq9No9+7dC16B6yh63lZfX282mtTZqscjv9aCIvem5Ha7Ra6OiPr40bTJSlvR4/boRjg8MDAQxeUbK+gPrFr5GGpihz0HtSt+CH6gKAzwT3t7e3FhEQrZaVOmet2eIc8gbhhY2Lk84jdhvH4fWl/A7/F50RlyGEeahNsrfl+aWpCAEQIj/phvEoP9A1hiIcWivXz5Mj3Fj9aySI3LlizFPlB7sv4EXRzYTXvp+UIKC+c56HahRdAb7Q8GguHQkHfw/y1i0+gb6KfN3v4+tKkqkVCv3pbRp4di6BzcfyA/N0+lzF6+7NHYh23iuSzVBi+98KJRb8gcO+7VHa/QPnolfaz87R+tySC6JvGuxR750VnfKcEROEQpA+mD3IqvvlJSOE2cOJ07jfzsn/8lY/QYYPmTv/8xjWBvdPmFjeojR5FlnQUTEVeuXCHP6F2jNyuVcy3OMvJNyPNt56509wz09aOPAqm/t+9OBaaEmeDO2Nne4XG5xQxTOM1GFH9N9vf3oxKYVFxiMhgRpz5tJBRBsygMwCLARam7cP4C8Dohc/yOHTswjoNivEMAPNpLOXVdbF88f8F9U6bO+95fPTR7zpSSSTOn3z+5uATtHQlMAJNBzH5g5pyZs2bce9/8h+b2ftUdnW4qKr4Wpfbll19WKrKw8Fq0YCEu19h9XiAreEUlEQrv+d/d4zLGlhQVl5SUNDc3Y1dfXx+RmtqFwW/efmf0d76rU6ntZkv2BIVZbyjML9Be+zn07Q6jVpef48BkMsdkGDRabN71F3+56/c7o9NNORFjdGPv7e1F29raWlBQgASqVWt2/c8fACcQJZRHxVikT3JXLl+hGD9Bp9OtWbMG5QHtilV4qarLXZceXbps5owHZky///77pk+bMhXX7QP3z8DmHYnp9943dfIU3BbRxzTunTpt9WOrMMnodFNRqATQitQZIXjBggVmsxmF7KaqjSjSRGkUEXAdFSsg6PsyJ+tPFOTlWywWjUbz/PPPA1bilX5WCgvXJ94O3FVwraNSGhgYQB/v4x1Rd3c3JoOZoMX7j8mgTzkmJUVZlt52dKqqqnJzc5E3Cyc6zzQ1ixR79ataeDdEYUAvwGojJB7shN99+x2lUom0rFAotm/fHjkyWu9SP/UEFhC+gB8tfVMOnUBIVEt3JGg+sSnFIlWFqzF2t9+8ebNWq7Xb7Uia7/1hF2VSBBW7UPS57BD98t9ey7jrbmdePqq6pYsWX+7o9LvFtxPhJT04jH9bUyDopJI/hkxb6gBCOCMQJf4UDYh0uTsvXFz08HwU7gBv7N2jX3/tF1Ecv66Rkb3S3fPGL1+nL3bl2OxoX93xSldHZ3T3VSH14uIA/kjALNYNBWC8Xi/aKEBX1XGx/ZWf7dBptHarDbBhyfWr19/o7YkupYZoZGRBPRLy737730XOwqwJCvpewuRJ97z4oxf27t5zqbML5XAsY0d/P5iD44ZxFRXAA4SwoHx/z96XXngRmKkjf7Y2O0uJhe/O3/1eFK84ciRdD1m0rZ99vn7tOvoOGNKtOktpALvFJSuWLttYUVlVXrGhrHzzhqqnqjZycNwwNlVuqCwtAzaABwgBJOBEfxbcbDQpFVnlpWXi29yxv5YwkkZGlrI3RKvUgwcPrly5EkUxfYnbbrZos1Xoo+zA5nW+B8nBER8A1GIwogU8QCjHYrWZzCpFFlZaq1atOnz4MGADcig1Cb8IjEN1jSwbEV4MdiHqnz179uevvIqkS3+eCUkXxS4C9Qd9qiZv4CqXIoZMW7oAKigAwAzgAUIAqXTd+n999edtbW2EHGBzu92oemlzRI2MLACNfxmop6eVGES/p6entbW1oaHh+PHjtbW11dXVxyQXzkIKRacrrWpqaurq6oAN4AFCACm2dne5XJQcSRihO/xw3SDL4pXRDdpEg04k0Kdv6MVGODhuGPRsKx4bsRkH6PDOEF0P2W8u8X+yWDdSFJdbUTj8f9Ty5W8/154OAAAAAElFTkSuQmCC;" vertex="1" parent="1">
                    <mxGeometry x="86" y="493" width="76" height="47" as="geometry"/>
                </mxCell>
                <mxCell id="10" value="Artifact Registry" style="editableCssRules=.*;shape=image;verticalLabelPosition=bottom;labelBackgroundColor=#ffffff;verticalAlign=top;imageAspect=0;image=data:image/svg+xml,PHN2ZyB4bWxucz0iaHR0cDovL3d3dy53My5vcmcvMjAwMC9zdmciIHhtbG5zOnY9Imh0dHBzOi8vdmVjdGEuaW8vbmFubyIgd2lkdGg9IjIxLjk5OTAwMDU0OTMxNjQwNiIgaGVpZ2h0PSIyMC4zOTM5OTkwOTk3MzE0NDUiIHZpZXdCb3g9IjAgMCAyMS45OTkwMDA1NDkzMTY0MDYgMjAuMzkzOTk5MDk5NzMxNDQ1Ij4mI3hhOwk8c3R5bGUgdHlwZT0idGV4dC9jc3MiPiYjeGE7CS5zdDB7ZmlsbDojNDI4NWY0O2ZpbGwtcnVsZTpldmVub2RkfSYjeGE7CTwvc3R5bGU+JiN4YTsJPHBhdGggY2xhc3M9InN0MCIgZD0iTTUgMHYyLjQ1OEwxLjk5OSA0LjE5N3YxMi4wMUw1IDE3LjkzOHYyLjQ1NmwtNS0yLjg4N1YyLjg4NnptMTIgMGw0Ljk5OSAyLjg4NnYxNC42MjFMMTcgMjAuMzk0di0yLjQ1NmwzLTEuNzMxVjQuMTk3bC0zLTEuNzM5em0tNi4wMTYgNi42NzNsMi45NDctMS42NDYtMi45NDctMS42NDYtMi45NDcgMS42NDZ6bTMuMjY4LTEuMDk2bC0yLjg3MSAxLjY3OHYzLjI4N2wyLjg3MS0xLjY3NnpNNy43NzMgOC44NjZsMi44NzEgMS42NzRWNy4yNTZMNy43NzMgNS41Nzd6bS0uMjEyIDMuODc4bDIuODItMS42NDYtMi44Mi0xLjY0Ni0yLjgyIDEuNjQ2em0zLjEzMi0xLjA5OGwtMi44NzEgMS42Nzh2My4yODdsMi44NzEtMS42NzZ6bS02LjI2NCAzLjI4OUw3LjMgMTYuNjA5di0zLjI4NWwtMi44NzEtMS42Nzl6bTEwLjAyOS0yLjE5MWwyLjgyLTEuNjQ2LTIuODItMS42NDYtMi44MiAxLjY0NnptMy4xMzItMS4wOThsLTIuODcxIDEuNjc4djMuMjg3bDIuODcxLTEuNjc2em0tNi4yNjQgMy4yODlsMi44NzEgMS42NzR2LTMuMjg1bC0yLjg3MS0xLjY3OXoiLz4mI3hhOzwvc3ZnPg==;fontSize=15;aspect=fixed;" vertex="1" parent="1">
                    <mxGeometry x="448" y="658" width="60" height="60" as="geometry"/>
                </mxCell>
                <mxCell id="13" value="" style="rounded=0;whiteSpace=wrap;html=1;fontSize=15;fillColor=none;dashed=1;strokeColor=#007FFF;" vertex="1" parent="1">
                    <mxGeometry x="373" y="398" width="342" height="219" as="geometry"/>
                </mxCell>
                <mxCell id="15" value="DBT SLIM CI" style="rounded=0;whiteSpace=wrap;html=1;dashed=1;strokeColor=#007FFF;fontSize=15;fillColor=none;" vertex="1" parent="1">
                    <mxGeometry x="494" y="418.5" width="106" height="60" as="geometry"/>
                </mxCell>
                <mxCell id="17" value="DBT DEPLOY" style="rounded=0;whiteSpace=wrap;html=1;dashed=1;strokeColor=#007FFF;fontSize=15;fillColor=none;" vertex="1" parent="1">
                    <mxGeometry x="411" y="543" width="122" height="60" as="geometry"/>
                </mxCell>
                <mxCell id="18" value="DBT DOCS" style="rounded=0;whiteSpace=wrap;html=1;dashed=1;strokeColor=#007FFF;fontSize=15;fillColor=none;" vertex="1" parent="1">
                    <mxGeometry x="567" y="543" width="121" height="60" as="geometry"/>
                </mxCell>
                <mxCell id="20" value="GitHub Pages" style="dashed=0;outlineConnect=0;html=1;align=center;labelPosition=center;verticalLabelPosition=bottom;verticalAlign=top;shape=mxgraph.weblogos.github;fontSize=15;aspect=fixed;" vertex="1" parent="1">
                    <mxGeometry x="600" y="654" width="60" height="60" as="geometry"/>
                </mxCell>
                <mxCell id="23" value="" style="shape=mxgraph.arrows.stylised_notched_arrow;html=1;verticalLabelPosition=bottom;verticalAlign=top;strokeWidth=2;strokeColor=#FF0000;dashed=1;fontSize=15;fillColor=none;rotation=-90;" vertex="1" parent="1">
                    <mxGeometry x="517.82" y="352.32" width="62.63" height="45" as="geometry"/>
                </mxCell>
                <mxCell id="26" value="" style="shape=image;verticalLabelPosition=bottom;labelBackgroundColor=default;verticalAlign=top;imageAspect=0;image=data:image/png,iVBORw0KGgoAAAANSUhEUgAAC7gAAAfQCAMAAABlzOIIAAAABGdBTUEAALGPC/xhBQAAAAFzUkdCAK7OHOkAAAGkUExURUdwTEGD7kOD8UOD8USC80WK/kKE8UOH/UaC6lWv/0OD8EOE8kOD8UOF+EOE8USF9ESF9USF9USF9EB520SF9UOF9kOA6kSF80SE8kSE8UOG+UOF90OF90OF9UOG+EOG+kSF9UOG+UOF9kOF+EOF+EOG+kB63UWD7kWD7UB63EWE70WD7kB63UB63UWD7kSF9EOG+EB73UOF9UWD7EB73UB63EB63USE8kB63USE8D963UF63kWD7EKH+0B73UKG+0OG+kOH/EOG/P///0SG90SG+ESG+USF9ESF9UOH/ESG9kOH+0WF80B74EB730OG+kWF8kaD60B73kWE7kaD7EB74UWE70WE8EB840aE7USF9kOH/USG+j985EWE8UaD6kF63EB84kF73UF620WF8UWE7UB73UB84UOG+z985UaE7EF62kF73PP3/r/T9sHW/EOB60KB7kOB5+Xu/UR/5ZW275S28eXu/kF/6fz9/06H5oat7lqO59Ti+vf6/3Ke632n7+zy/bPM9uDq+56988vb+GaW6anF9o+z8UmI9FWQ9Web9qU3UdcAAABDdFJOUwAJHSsPBRaqqgEkM0/rO4GJWGGtk2pD9LzkwdvTecrhcpxHqLPy5cza1fCc+fG0pPmb+Phnusf8dvpajOz3gP78+/6kpjXVAAAgAElEQVR42uzBAQEAAACAkP6v7ggKAAAAAAAAAAAAAAAAAAAAAAAAAAAAAAAAAAAAAAAAAAAAAAAAAAAAAAAAAAAAAAAAAAAAAAAAAAAAAAAAAAAAAAAAAAAAAAAAAAAAAAAAAAAAAAAAAAAAAAAAAAAAAAAAAAAAAAAAAAAAAAAAAAAAAAAAAAAAAAAAAAAAAAAAAAAAAAAAAAAAAAAAAAAAAAAAAAAAAAAAAAAAAAAAAAAAAAAAAAAAAAAAAAAAAAAAAAAAAAAAAAAAAAAAAAAAAAAAAAAAAAAAAAAAAAAAAAAAAAAAAAAAAAAAAAAAAAAAAAAAAAAAAAAAAAAAAAAAAAAAAAAAAAAAAAAAAAAAAAAAAAAAAAAAAAAAAAAAAAAAAAAAAAAAAAAAAAAAAAAAAAAAAAAAAAAAAAAAAAAAAAAAAAAAAAAAAAAAAAAAAAAAAAAAAAAAAAAAAAAAAAAAAAAAAAAAAAAAAAAAAAAAAAAAAAAAAAAAAAAAAAAAAAAAAAAAAAAAAAAAAAAAAAAAAAAAAAAAAAAAAAAAAAAAAAAAAAAAAAAAAAAAAAAAAAAAAAAAAAAAAAAAAAAAAAAAAAAAAAAAAAAAAAAAAAAAAAAAAAAAAAAAAAAAAAAAAAAAAAAAAAAAAAAAAAAAAAAAAAAAAAAAAAAAAAAAAAAAAAAAAAAAAAAAAAAAAAAAAAAAgNm1g5SGgTAMw0hiQ1uSpiXjYtpIJjZrT5BFz5H738OVICK4q43zPGeYH16GDwAAAAAAAAAAAAAAAAAAAAAAAAAAAAAAAAAAAAAAAAAAAAAAAAAAAAAAAAAAAAAAAAAAAAAAAAAAAAAAAAAAAAAAAAAAAAAAAAAAAAAAAAAAAAAAAAAAAAAAAAAAAAAAAAAAAAAAAAAAAAAAAAAAAAAAAAAAAAAAAAAAAAAAAAAAAAAAAAAAAAAAAAAAAAAAAAAAAAAAAAAAAAAAAAAAAAAAAAAAAAAAAAAAAAAAAAAAAAAAAAAAAAAAAAAAAAAAAAAAAAAAAAAAAAAAAAAAAAAAAAAAAAAAAAAAAAAAAAAAAAAAAAAAAAAAAAAAAAAAAAAAAAAAAAAAAAAAAAAAAAAAAAAAAAAAAAAAAAAAAAAAAAAAAAAAAAAAAAAAAAAAAAAAAAAAAAAAAAAAAAAAAAAAAAAAAAAAAAAAAAAAAAAAAAAAAAAAAAAAAAAAAAAAAAAAAAAAAAAAAAAAAAAAAAAAAAAAAAAAAAAAAAAAAAAAAAAAAAAAAAAAAAAAAAAAAAAAAAAAAAAAAAAAAAAAAAAAAAAAAAAAAAAAAAAAAAAAAAAAAAAAAAAAAAAAAAAAAAAAAAAAAAAAAAAAAAAAAAAAAAAAAAAAAAAgT2UxHsPQH9ouvVVwD6lrD/0QTk1RukAAgF9sxtBV8TwvtwXu6uuTm86x6sK4cZEAAD8le4r1t36CP+z421LHFF7kOwDAp90pXZQij/oPX1fDfutMAYDMPe+HqpaHPLop9s2TewUAclUe3ydJyFrM12A2AwBkaBeu5uysTewLtwsA5KRojdpZqUur3QGATJQhqj/W7HWwmQEA/r1tk2bhx+r37h/s3Ulu41YUBVCoNahegpyBOlqWOdYKBFuaGRnUAriB7H8FQQaVVFy21bH5os7ZAy8uHh7ff+g5NAMAVFl9FOt8VEM8rPuiAYCK6hq2UyX7rW13AKCCooErMlTOzMYMAFAxrfFKyaOKFpOW7xsAqE5tf7TaTnWX3Sem7gBANUTjuXJHlc3HqjsAUAEDV9upvNUfvnQA4MY1HpQ67uI31a6vHQC4YfWNQsed2G89pwoA3Kpo0lfnuB/Jk1V3AOAmdV2A5N5W3b3IBADcntrQe0vc377MtOnbBwBuStRzuZ27FD/7/AGAG9JcK3Dcq62hOwBwMwZz7Y07HroPZAAAcBOipe127nvTfei8DABwA+peSuXuzeqSAAAI3TjR2iAZywIAIGitkcoG/1i35AEAEK62NRn4uS7jugwAEKqoEfstFX6ae0cVAAhUz3o7/Lro3pMKAECAXIGEj9yFBADCU3vQ0uCjjV9UAYDQervfUsEvqgBA8JqrffoOfJAeVm35AACEo71Q2+HT5p4uvKIKAASjM08Vd/iiuscdGQEAhKERq+3wZXHf9x10BwCC0E30dvhuW6bflRMAQPkafc0MjjR3M3cAoHSdvv12ONbc7bkDAGWrx1oZHG/uc1chAYBStRfm7XBKdV9o7gBAiZortR1Om7mvvKEKAJSmNjNvh1Or+6wlMwCAckQbtR1OtU+3QgMAKMdQb4dzZu5LqQEAlGH8qonBWUP3ntwAAIrnwVQ4V+IhJgCgcG0H3OFssaOQAEDBWjPzdjif0zIAQMHWGhhc8H9qOpUeAECRJubtcFl1H8sPAKA4jZ3+BZdJ6hIEAChKbWHgDhevuUcyBAAoyFpvh8uXZYYyBAAoRk9vhyvsB1IEAChCu695wTXiphwBAArwoHfBdR7kCACQv4nWBdc5HNyEBABy1+7bcIdr9S3LAAB52+jtcLV0LUsAgHy5KANZeH2WJgBAnmqxxgVZjNznNXkCAORoaOAO2VjKEwAgP52dugXZ2HUkCgCQmxdtC7LimDsAkJtnXQuy4/9UACAnrYUNd8jOoiVVAIBcPOntkJ00fZQqAEAemt5MhUwlbbkCAORgrbdDpvZTuQIAZK+xPyhakG1zb0gWACBzMy0LMnaYSRYAIGvjvZYFmevJFgAgW625igWZS+c16QIAZGqZ+jUVcmjuT9IFAMhSO9GwII/i7iQkAJCprXk75GMtXwCA7HRf1SvIx2tXwgAAWYlmBu6Ql1UkYwCAjEz0dsjLIR3LGAAgG7VYuYL8xE5CAgDZGGlWkKN0KGUAgCzUdwfVCnK0q8sZACADD3oV5GsjZwCA6w3+UqsgX68DSQMAXCtaaVWQ95a7k5AAwNUeU7cgIffmPpE1AMB1mn2dCvIv7v2mtAEArjI1b4cijKQNAHCNxptCBUXYd+QNAHCFFwN3KMaLvAEALtfT26EozxIHALhUa664Q1EWLZkDAFzoSZeCoqTpo8wBAC7TTpQpKE7SljoAwEXWmhQUOXOfSh0A4BLdvSYFRXpryB0A4AIzPQqKHbnP5A4AcL6xizJQtJ7kAQDOVYuVKCh65D6vyR4A4ExDA3covrkvZQ8AcJ66U5BQgqQufQCAs2zTP4HiraUPAHCOwQ8FCsrw2pU/AMDpopX+BOVYRRIIADjZRHuCkryPJRAAcKpmbMMdyhI7CQkAnGr0rjxBWdKhDAIATtPZ6U5Qnp2TkADAaR40JyjTRgoBAKd41pugXAM5BAAcFy3UJijV+8JJSADguMdUb4JyHSaSCAA4ptnXmqBs/aYsAgCOmBq4Q/lGsggA+F7jTWWC8u070ggA+NaLt5cgBC/SCAD4Tk9vhzA8yyMA4GutuQ13CMO8JZEAgC8ttSUIZcv9SSIBAF9pJ9oShCJpyyQA4AtrXQmC8T6VSQDA57pOQUJA3hpSCQD41ExTgpDMpBIA8JmxU5AQlp5cAgB+V4vVJAhLXJNMAMBvhgbuEJqlZAIAPqo7BQnBSeqyCQD4YKMjQXi2sgkA+L/BDxUJwrMfSCcA4FfRSkOCEK0i+QQA/GKiH0GQDhP5BAD8p9nXjyBMcVNCAQD/GmlHEOrIfSShAICfOjvtCEK1+5u9O8tN64zDOBxGC/BhEkQIMJPhOmzA4hillrjKAvACvP8VtGlaJWkcDzflG55nET+9+nT409YoAOAfW9sIgnW40igA4JvN0TaCgH1UKQDgq8bcMIKAneZOQgIAX608uEPYxjoFADgFCeErnIQEAD58GJ1PdhGEbaRUAECtNIogdHc1rQKA7E3ORhEEb6JVAJC7a9/JQATOG7UCgLw1Zh7cIQazhl4BQNZu7CGI48l9pVcAkLPmzh6COOyaigUAGVtbQxCLtWIBQL46pZ+mQizKjmYBQK5aU1sI4vnKfdpSLQDI1OBsC0FEBqoFAHmqLA0hiMmyolsAkKWeB3eIS0+3ACBH1TszCKJyuKsqFwBk6NYMgth8Ui4AyE/3ixEEsTl2tQsActNaOOEO8Vk4CQkAuRlbQBCh81C9ACAv9eLeBIIIFXX9AoCs9O0fiNJ9X78AICftu7MBBFG6aysYAGRka/1ApE5XCgYA+dgYPxCvjYYBQC4ac9MHonWeN1QMADKxOj0B0TqNVQwA8tAsLB+I2Llo6hgAZGF9tHwgaiMdA4Ac1EqzB+JW1pQMADIwOZs9ELmpkgFA+gY+lIHYHY7XWgYAqavMDHeI36yiZgCQuBuLBxJwvFEzAEhbc2fxQAp2VT0DgKR9+gKk4LDWMwBIWae0dyANZUfRACBdram1A4k4TVuaBgDJGho7kIyngaYBQKrqha0D6Vg6CQkAqerfmzqQkJ6qAUCa2ntDBxJy2DsJCQBpujJ0IC23ugYAKfpo5UBiT+4PXWUDgPS05kc7BxIzdxISANIztnEgvTf3obYBQGqcgoQUFXV1A4DEjCwcSFFf3QAgLTWnICFJ+7a+AUBStvYNpGmrbwCQkmvrBlK1UTgASEdjZtxAok7zhsYBQDJWT9YNpOpprHEAkIrmzraBdJ/ci6bKAUAi1qYNpPzkPlI5AEhDp7RsIGVlTecAIAnTg2EDSZvqHACkYGDVQOqulQ4A4ldZGjWQumVF6wAgej2bBpJ3uNE6AIhd1SlIyMCuqnYAELlbiwZysFY7AIhb1ylIyELZ1TsAiFlrYc9AHsN90VI8AIjY0JyBXAwUDwDiVS+MGcjEyUlIAIhY3xfukI+e5gFArNp7Uway8bRrqx4ARGrrwR1ycqt6ABCnjR0DWTl+1D0AiFFrfjBkICtzJyEBIEZjKwYycxoqHwDExylIyE9R1z4AiM7IhoHsPPW1DwBiU3MKEjK0r6kfAERmYsFAjrbqBwBxuT4aMJCljf4BQEwaM/MFsnSYNRQQACJy48Edcl3uKwUEgHg0d9YLZOqpaGogAERjbbxAvst9pIEAEItO+Qhk6+AkJADEYmq5QM6mKggAcRjYLZC3ax0EgBhUlmYL5G1ZUUIAiEDPaoHc3SghAISvujNaIHe7qhYCQPBubRZgrYUAELrug8kCPHTVEADC1lpYLMDj46KlhwAQtOHJYAH+MtRDAAhZ3SlI4G/LuiICQMD6HtyBb3qKCADhau+NFeCbfVsTASBYW1sF+NeVJgJAqDaWCvDdRhUBIEyNuaECfDdv6CIABGllpwA/GusiAISoWZgpwI+KpjICQIBGVgrwk/uRMgJAeGqllQL8rKxpIwAEZ2KjAP9xnGgjAITm2n+mAr9yEhIAAtOYGSjAL06zij4CQFBuPLgDz1npIwCEpLl7AHjGzklIAAjJ2joBnrdWSAAIR+ezcQI873NHIwEgFK2pbQL8zrSlkgAQiKFlAvzeQCUBIAyVpWEC/N7SSUgACEPPLgFe0tNJAAhBdfdolwAv2FWVEgACcGuVAC96/KSUAHB5XaMEeMUfXa0EgEtrLWwS4LUn94WTkABwaWOTBHjdUC0B4LLqhUECvKos6noJABc1Ki0S4A36egkAl9TemyPAW+zbigkAF7S1RoC3uVJMALicjS0CvNVGMwHgUhpzUwR4q3lDNQHgQlaWCPBmj2PVBIDLaDoFCbxD0dRNALiItR0CvMdINwHgEmpOQQLvsq8pJwBcwMQKAd7lNFFOAPj/DR6tEP5k785y00jDMIyGMSqgmASOxWgMXBuxAi4AtZwdIPa/jp7VSdpxgBqocp2ziOd/VcKf4TrnlnYCQNpKYxsEuHa4j0vqCQAp6+xsEOBqU/UEgHSV1wYIcLXD2klIAEjXiwEC3GKhnwCQpvbB/ABusW8qKACkJ5j5hTtwm1GgoQCQmr7tAdzo3NNQAEhLde6GO3CruZOQAJCWruUB3K6jogCQjoZTkEAE27KOAkAqPtsdQBRLHQWANDxYHUA0bSUFgOQFE6MDiOQ8cxISAJI3NDqAqMu9r6UAkLRqaHMAUYVVNQWAhA0sDiC6rpoCQLIqG4MDiG7T0FMASNTK/0wF4rDSUwBIUstuB+LxrKgAkJzaeGdtALEY1zQVABLzZGsAcRlqKgAkpb42NYC4hHVVBYCELA6mBhCXrwNVBYBkNJ2CBGK0q+gqACRiZGcAMTqMdBUAktAzM4B4tZQVAOJXmhsZQKzO45K2AkDsOk64A3GbaisAxK3sFCQQu7WTkAAQt5eziQHEbqGuABCvthPuQAJ2bX0FgDgFM/sCSMIsUFgAiFHfugCS0VNYAIhPde4X7kAy5k5CAkB8unY7kJCvHY0FgLg0NrYFkJRtWWUBICYrywJIzHmpsgAQjwfDAkjSg84CQByCiVkBJGg3cRISAOIw9JepQLKGSgsA0VVDowJI9pN7WNVaAIhs4IM7kLSu1gJAVBWnIIGknTcVtQWAiFZfbQogcSu1BYBoWn4oA6ThWW8BIIra2JwA0jCuKS4ARDA9AKRh96S4AHC7eng0J4BUhHXNBYCbLex2ICXngeYCwK2ar7YEkJZTU3UB4DbByJIAUrMbyS4A3KbnhzJAivY93QWAW5TmdgSQpnFJeQHgBh0rAkjVcaq8AHC98tqKANK1LmsvAFxtaUMAaXvRXgC4VvtkQgBpO7XVFwCuE8wsCCB9s0B/AeAqffsBuIe+/gLANarzs/0A3EFYVWAAuELX/14C7mG/6yowAFyusTXcgfvYNjQYAC62sh2AOzkvNRgALvVgOgD386zCAHCZ2sRwAO5nUtNhALjIk90A3NNQhwHgEvXQbADuKawrMQBcYOCEO3BfAyUGgF+rbIwG4L42FS0GgF96dMIduLdHLQaAX2lZDMC9HXctNQaA99XGJgNwf+OSHgPAu6b2ApAFT3oMAO+pr/f2ApABaychAeA9C2sByIL9fqHIAPBzTd/bgYx4bWoyAPxMMLIVgIw4jgJVBoCf6DnhDmRHT5UB4G2luaEAZMfcSUgAeFvHB3cgSzq6DABvKW/NBCBDdtuyMgPAG5ZmApAtL8oMAP/XPhkJQMa0tRkAfhTMTAQga2ZOQgLAj4YWApA9fXUGgO9VQ/80FciesKrPAPCdgX0AZNCuq88A8K3Gxgd3IIs2DYUGgG+srAMgmz4rNAD859k2ALLqWaMB4F+1iWkAZNWkptIA8I8nywDIrqFKA8Df6qFhAGTWMazrNAD8ZeGiDJBlA50GgD81N2YBkGWbilIDwB9GPrgD2fao1ADw6VPPJgAy7tzSagAozX1wB7JuXFJrAAqvY7cDmbebqjUARVdeG+5A9q2dhASg6F7sASAPFnoNQLG1T+YAkAevTcUGoMiCmTUA5MMs0GwACqxvCwB50dNsAIqrOjcFgLyYOwkJQHF1LQEgPzqqDUBRNbaGAJAf27JuA1BQn+0AIE+Wug1AMT1YAUCuHNvKDUARBRMrAMgXJyEBKKShDQDkzLmv3QAUTzW0AYC8CavqDUDhDCwAIH+66g1A0VQ2BgCQP5uGfgNQMCvvP5BHK/0GoFhaXn8gn54VHIAiqY33AHl0mNQ0HIACefL4A3k11HAAiqMeevqBvH5yD+sqDkBhLDz9QH4NVByAomj+5uEH8utU0XEACmL06uEHcuxRxwEohp5XH8i1Y0vJASiC0vjg2QdybVzScgAKoGO3A3k31XIAPr7yF08+kHdfymoOwIe39OID+bdQcwA+urZTkMAHcGrqOQC/s3MvO21dUQCG5at0MMfYlg3ENjZgZh2A/ASRYhfkSee8AYM2qio1lyotqSLl9tJtIkVp0oQAwfbZe3/fM5j1L20dVtyykd4DEZj3MxMdgKh15B6IY3Nvm+gAxKw6VnsgjsV97CQkADFrOQUJxGLLTAcgXhtTqQdieXKfOgkJQLyOFloPRGNiqgMQq217OxCTbXMdgDhlQ5kHYjJ0EhKAOPVUHojKomeyAxCjau6kDBCXvGq2AxChrsYDkZm3zHYA4lM50XggNicV0x2A6OwqPBCfI9MdgNhs6jsQo0PzHYC41AbyDkRoPqyZ8ABEZU/egTg3930THoCY1HN1B+Jc3PO6GQ9ARA6ccAdi3dy7ZjwA8WgstB2I1VnDlAcgFllf2YF49TNzHoBItHUdiNiibc4DEIfSWNeBmI1LJj0AUdhSdSBueyY9ADEoT0UdiNu0bNYDEIGJpgORmx+b9QCEr3mu6UDszpumPQChy0aKDsRv5CQkAKHr/CjoQAI65j0AYas6BQmkYJFXTXwAgtby4A6ksbm3THwAQrbhFCSQyOJ+smHmAxCwIzEHUjEx8wEI16GSA+k4NPUBCFVtKORAOoY1cx+AQO3rOJCSnrkPQJiquYwDKcnrJj8AQeqqOJCWrskPQIgqJ3MVB5JyUjH7AQjQroYDiZnvmv0AhKct4UB6Nk1/AEJTGwg4kJ5ByfwHIDB7+g2kaN/8ByAs9R35BlK04yQkAGE5vi/fQJIOFACAkDQW4g0kabFoaAAA4cj64g2kqp+pAADB6Cg3kK62CgAQitLYlzJAusZOQgIQipZuAynb0gEAwlCeyjaQsmlZCQAIwkS1gaTNj5UAgBA0z1UbSNt5UwsAKL5spNlA6k/uIychASi+nmQDdNQAgKKr5oINJG+RV/UAgILrOuEOMJu19ACAYqucyDXAbHayoQgAFNqRWgO8c6QIABTZ4QKA9w41AYDiqg1nWg3w3rCmCgAU1r69HeCDnioAUFT13OIO8EFe1wUACupApwE+6uoCAMXUmMo0wEenFWUAoJD6Kg3wH7NdZQCgiNpnKg3wiU1tAKB4SgOJBvjUoKQOABTOlkIDfG5PHQAomvKOQAN8bsdJSACK5lifAf7vQB8AKJam/0wF+ILThkIAUCTZyOIO8CX9TCMAKJCONgN80aytEQAUR3WszQBfNnYSEoDiaCkzwNdsqQQARbExFWaAr5mWdQKAgpjoMsDXTXQCgGLYnssywBWaSgFAEWRDUQa4wmzkJCQARdATZYCrN/eOVgCwftVckwGullfVAoC16yoywLe01AKAdas4BQnwTScbegHAmh3NBBngm470AoD12lRjgOs4VAwA1qk2EGOA6xjWNAOANdrXYoBrmfU0A4D1qee+cAe4nryuGgCszYG9HeC6T+5d1QBgXRqnSgxwXacV3QBgTfo6DHBt813dAGA92jIMcJOPZTaVA4B1KDkFCXAjg5J2ALAGW/4zFeBm9rQDgNUr70gwwM3slNUDgJWbKDDATR2rBwCr1jwTYICbOmvoBwCrlY30F+DmRpmCALBSHfUFuI22ggCwStWxkzIAtzGuaggAK9TSXoDb2dIQAFZnYyq9ALczdRISgNU5OgfgdhYTFQFgVbaFF+D2tnUEgNWoDWUX4PaGTkICsBo91QX4Dmc9JQFgFaq56gJ8z+KeOwkJwCp0RRfg+7S0BIDlq0wlNxzzN69e/v2QBLx8cfnaDz4cs2lFTQBYul3JDcbi1bMHT548IBE/P3zrRx+OXTUBYNk29TYUP10+sssm5skvb/zwg3GoJwAsV20gt6F44bE9wc39uUf3YAxqigLAUu2pbSifyTy0xSbpz0s//lDsKwoAy1TfEdtAvLTCpvqluzf3UOzUNQWAJTrQ2jDM/7DAJus312UCcf8HTQFgeRqnWhuG18/tr+l68au/gDCcNlQFgGXJ+kobiBe215Q/c39qcw9EP9MVAJakrbOh8OCe9pP7hc09EG1dAWA5SvdkNgyzt3bXpD27sLkH8qd6r6QsACzFlsyGwkmZxD21uYdiT1kAWIayU5DBcMM9cX9d2NwDMS1rCwBLMNHYYDyzuqbt8sLmHopjbQHg7jXPJDYYj6yuaXv1797+2OYehLOmugBw17KRwlrcCcTvFxfe3EMxchISgLvW01eLO+Es7o/fPbnb3IPQ0RcA7lZ1LK8WdwJ7cbe5ByGvKgwAd6qlrhZ3glrcH/vOPZCP3M9aCgP8w9697LSVJHAcDlcJgrmJxJhLFAi7lhrJmzwAGREhFllGkaysvcCjDgYN5g4B0vPU063O9GRywz6Uj+uc+r4HiFfo/0upXIaQJuvmVbhTsBP3fzlzL4b6pI0BIKCN1xSJcBfuf/vN30Ps3r2wMQCE89S0CncKGu7KvQDWrQwAoYytGFbhTlHDXbnHb2XMzgAQyPNtwyrcKWy4K/f4PbEzAIQxWjGrwp0Ch7tyj15l3NIAEMTCjlkV7hQ53JV79BYsDQAhjNSNqnCn2OGu3GNXH7E1AASwaFOFO0UPd+Ueu0VbA8DDTVlU4U7xw125x27K2gDwUEPLBlW4U4JwV+6RWx6yNwA80Ko9Fe6UItyVe+Se2xsAHma8ak6FO+UId+Uet6onIQF4mE1rKtwpS7gr97itWRwAHuKx30wV7pQn3JV71LYf2xwAsptYsqXCnRKFu3KP2tKE1QEgs3kH7sKd/rg8vWm1bm6uj/INd+UetTmrA0BWozVDKtwJbq91ePuh8Tmk2yfHV/s5hrtyj1nNk5AAZDVrR4U7gR21Ltpft3Tj9u4yt3BX7jGbsTsAZDPpKUjhTuBsvzr5fk23j6/zCnflHrHqsOUBIJMXO2ZUuBNSq9Ns/yin25/2cgp35R6xTcsDQBZPbahwJ6T985/3dKeVU7gr94hN2x4Aejex4kkZ4U7Y4/b7HJ/lE+7KPV7PPAkJQO+e6HbhTm73zj+7vczps5R7tOatDwC9Gq0Id+FOuG+lHje7cnKd038SlHusKqP2B4AeLeh24U64br9odqmzn9PpvnKP0/b2rP0BoDcjdeEu3Mn3nsznM/fLnD5OuUeqPmmBAOjJhvUU7gRz1+zB7VFO/09Q7nHa+dUCAdCLdU+4C3eCOW33Eu7Nw7wO+JV7pNZtEADdG1sxncKdUM5Oeur2ZuMmr5s5yj1OK2NWCICuPXfgLtwJ5oNQvEgAACAASURBVKDZo5OznMJduUfqiRUCoFvjFcMp3Anlut1ruDc/5vZdWOUepcq4HQKgS2telBHuBHPRc7c3P1zmFe7KPU4LdgiA7jx+aTaFO6HsNzP4mFu4K/covRyxRAB0ZcmBu3AnmE+NDOHeOcst3JV7lBYtEQDdmNPtwp1wT8p0spy4N1v5hbtyj9G7KVsEwP2GajZTuBNMK1O3N89zDHflHqPlIWsEwL1mLKZwZ6BfTf1T+yzHcFfuEdpetUYA3Ge4ajGFO+F02tnK/SbPcFfuEap6EhKA+2zaS+FOwEfcmxkd5Bruyj1Ca/YIgJ+b9s1U4c7gr7g/8JJ77+Gu3CO8LPPYIgHwMxPPrKVwJ6CPWcP9JOdwV+7xWZqwSQD8xLytFO6EdJw13JtHOYe7co/PnE0C4MdGPQUp3AnqPHO47+Ud7so9Njs1T0IC8GOzplK4E0m47+ce7so9OjNWCYAfmawbSuFOULeZw/06/3BX7rGpDtslAH7g1x1DKdyJJNwHcOKu3KPzwi4B8H1PraRwJ5qrMpeDCHflHpunlgmA75lYMZLCncAuMif02UDCXblH5pknIQH4nic2UrgT2kHWgO5sDSbclXtcXs3bJgC+NVqxkcKd0K6K8supyj1SlVHrBMA3FiykcCe406z5/Glg4a7c4zJrnQD42oinIIU74R11MtZza3DhrtyjUp+0TwB8ZdE+Cnf6EO5Zv526N8BwV+5R2bBPAPy/Keso3Inokvvt1iDDXblHZd1CAfClsWXjKNzph712pnK+G2y4K/eYrIzZKAC+sLprHIU78bzk3t4bcLgr95g8t1EA/M941TQKd/pzyT3TuzLHW4MOd+Uekcq4lQLgb2vbplG40yfnGar5evDhrtwjsmClAPivx7pduNM3N7kfuIcJd+Uej+0ROwXAZ0tuuAt3Irrl/v4yinBX7vFYtFMA/GXOKgp3+ujyfa5PyoQLd+UejVdTlgqAPw0t75hF4U4ftXrL5fOjWMJduUdjechWAfCHGZso3Omv415iuXO5FU24K/dorNoqAB49GvYUpHCnz856eFnmw+lWROGu3GNRHbZWADzatIjCnX7bu+36p5dutqIKd+Uei01rBcC0pyCFOzl8QbXLcm+3tiILd+UeiZfT9gogdRPP7KFwJ5rbMh9utqILd+Ueh+1nExYLIHHz5lC4k4ujg/a9iXxyvRVhuCv3SMp9zmIBpG20Zg2FO3m9Ctm5J5A/nW1FGe7KPQrvaqM2CyBps55wF+7k9xXVnwb17WmwDwod7so9DjM2CyBlk/VtymhfI0d6Xeb64m3j+06ujsJ9zmEjtN/8VUWgPmm1ABK28cYUCndydX3Y+TaL2+etoB8SPtyVexReWC2AdD21g8Kd/N+XuTk8+TKJOxdXl4E/og/hrtyjsG63AFI1tmIGhTuDue1+evXx8Pj408Hdzf5R+H++H+Gu3GOw4klIgFTNW0HhTin1JdyVewTezFsugDQN1aygcEe4K/ciqQ3ZLoAkrdpA4Y5wV+6FsvvcdgGkaLSyawSFO8JduRdKxa8wAaRo1gIKd4S7ci/aLXe/wgSQoOGqBRTuCHflXjTVcfsFkJxf7J9wR7gr9+JZsF8AqZl8af6EO8JduRdPfdiCASRmzfoJd4S7ci+gXUfuAIkZrls/4Y5wV+6FvOXuYRmAtCzYPuGOcFfuxbRqwwBSMl41fcId4a7ci6k2ZsUAEuJHU4U7wl25F9a8FQNIx1jN8Al3hLtyL6qVCTsGkIw5uyfcEe7KvbB21+0YQDKW3hg+4Y5wV+6FtWHHAFIxuWv2hDvCXbkX+Mh90pIBJGLmtdkT7gh35V5gXoQESMSEr6YKd4S7ci+0ZV9PBUjDus0T7gh35V5s07YMIAmbJk+4I9yVe7H9YssAUjBaNXmldypd03bcUO5lVx2yZgAJeGLxyu+f0jVt5w3lXnpz1gwgAUsegyy/K+matpOGci+9RWsGUH7Dur38/nEhXZO232go99J7OW7PAErPTZkU/H4mXlN291a5J2DengGU3oa5S8COuzJJu200lHv5vbBnAGU3VHdVJgX/duSesFajodwT4F0ZgNKbsnZpHLnfyddknZ00lHsS1i0aQMmtGbtEyv1GwKbqotFQ7klYsGgA5TZRM3ZpeNW5VrBp+vi2odzTUDNpAOU2beuSOXLvOHNP0dHBgLpduQ/AiE0DKLUZU5eK1zvv7450bHIvuJ83Gw3lnor/sHcvP1FmCRiHBZFMcZFLhCouduiWRCMJLInrWYwLmLghYSNJJZ18K7EnYLq5C3LrmX96xrYv4qgBQhXWe57nL2BD3l++nDrnoU0DiNYwdQX5ZXdduhfl8Hzz5W1S7m02a9MAkt2rm7qiyv3l9s763sYrCvDu5Ox09eUtU+5ttTRYs2oAwfpNXWnl/t6t5xxt0fwG/gbl7pA7ADdlxtAVWe6g3CONWTWAYI8MnXIH5Z5iwaoBBHOLu3IH5R5zyH3KqgHk6jN0yh2Ue45euwYQa8TMKXdQ7jGeD9g1gFjDzw2dcgflHmPIrgHEmjVzyh2Ue84X90d2DSCW36Yqd1DuQabtGkCqriUzp9xBuedY7LJsAKG8m6rcQblH8XYqQKpRI6fcQbknGbFsAKGGjZxyB+WexLUyAKlcKqPcQblHca0MQKqpF1ZOuYNyD+JaGYBUdSOn3EG5B1katGwAmXqMnHKXkij3LO6DBMh018Sh3FHuWbptG0CkcROHcke5Z7lv2wAijZg4lDvKPcuAbQOINGPiUO4o9yxjtg0gkveXUO4o9zBeYALItGDiUO4o9yxztg0gUsPEodxR7lnmbRtApMklG4dyR7lHadg2gEjfmTiUO8o9ytKkbQOINP3CyKHcUe5RvrNtAJGmTBzKHeWe9cV92rYBRJqwcSh3lHuWKdsGEGnQxKHcUe5ZJmwbQKS6iUO5o9yzDNo2gEiLS3DBL6vQTj/5p7txddsGINxR7qDchTsAt6Nu4lDu3K5/+ae7WS8clQHINPijkUO5o9yj+HEqQKYJE4dyR7lnfXF3HSRApqkXRg7ljnKP4gEmgEzTJg7ljnLP8ti2AUR6bOJQ7ij3LJO2DSDSpIlDuaPcs864N2wbQKSGM+4od5R7lnnbBhBpwcSh3FHuWeZsG0CkYROHcke5ZxmybQCRZkwcyh3lnmXMtgFEGjFxKHeUe5YB2wYQadzEodxR7ln6bRtApD4Th3JHuWfprhk3gEQ9Jg7ljnKPstZl2wAy1Y0cyh3lnmTQsgGEemLkUO4o9yA/Tls2gFDzVg7ljnJPsmDZAEJ5gQnljnKP4v0lgFSjRg7ljnJPMmLZAEL1GzmUO8o9yV3LBhCqa83KodxR7jkW3QYJEGvCzKHcUe45XCoDkGvWzKHcUe45Hnk3FSCWa2VQ7ij3IC6VAcg1YuZQ7ij3HAN2DSBVrdvModxR7jl6DRtALr9ORbmj3GNMWTWAYAuGDuWOck/xvVUDCDZm6FDuKPcUoy6VAQjm7VSUO8o9hndTAZLV6pauLP8+f73386sM+3/ny/bf7Z0dbCr3sjz1wR0gWsPUFeQf/3m9tbWlacvx6s2mci/JrE0DiDZk6srx65loL87hgXIvyEObBhDNIfeCTsnsydgSvVHujrgDkKHmJvdiun3D9/YyHSv3UkyYNIBwc8auEL63F2tHuRfigUUDCDdg7MrgfHvBF8zsKvcyjFs0gHBdLoQs46CMuxMLtu5WyCLU71k0gHTz5q4ER+q1ZKfKvQSP7BlAvDFzV4BffXAv2pk3VEswYs8A4nWv2bt8b7Vr0TZWlXu+xV57BpBv0uDFe+6kTOF2lXu+hjUDKMCowcv3WrqW7WBVuTspA0CAHvfK5HOJu6vclXu4epc1AyjBgsmLtyFdy/ZmVbmnm7NlAEUYN3nCHeGu3DvbfVsGUITahM0T7gh35d7Jpmq2DKAMQ0ZPuCPclXsne2jJAArR5yp34Y5wV+4dbLHbkgGUomH2hDvCXbl3Lpe4A5RjwOwJd4S7cu9cP9gxgFLUalN2T7gj3JW7n6YC8O2bMXzCHeGu3DvVmBUDKOiTu9dThTvCXbl3qqc9ZgygJMOmT7gj3JV7ZxqyYQBFfXLv9clduCPclXtHqvcaMYCyzBk/4Y5wV+6d6IEFAyhM3zPrJ9wR7sq98zzz+BJAcR6YP+GOcFfunWfYXZAApXHKXbgj3JW7E+4AdES5DxlA4Y5wV+6dxpUyACXqGbSAwh3hrtw7y6A73AGK5PlU4Y5wV+4dxqOpAGXqmrCBwh3hrtw7yUSX7QIo06jAFe4Id+XeSUYtF0ChatMKV7hzKw5Pjo7f7Lx9e35+tr63JdyV+yVNuwoSoFjjCle403b76+e7zWZzZbVZVcsrK83VzYPjDeGu3C/jvt0CKNf8CyIJ92/Xu53tZrNqXlBV1e7R/k2GezPZT+X+Z//NB3eAgvXVNa5wp432Dqpq5XMxWlXbx/vCXbl/Vb1buAOUbFjjCnfad7J9p6q+WKPV8vaRcFfuXzOk2wGK1jMhcoU7bXK0vfzVHK2qg0Phrty/yFWQAKUbFbnCnfb8JnXn84dkLqT79olwV+5fMmKxAApXe6xyhTtt8Oq0ulSRHgl35f55jx2UASje/TWZK9xpuY3dSwbp8rFwV+6fs9ZvrwBYkLnCnZb/LHW3qi5bpGfCXbl/xvc+uANwp9uVkMKdb+SczG/+eSTclfv/qXdbKwDu3BnSucKd1tpZuUqQbu4Jd+X+qYe2CoD/6XIlpHCntfdAXqnbmyu7r4S7cr9oylWQAPxmROgKd1r5w9TN5SsG6Y5wV+4XDVgqAD5oKF3hTuscXDVHq80T4a7cP9awUwD8rn9R6gp3WmV9s7pyj54Kd+X+kcW7rpQB4A9zUle40yqn1TV6dF24K/e/PLBSAPyp96nWFe60xsm1cvRUuCv3Pz3ttVIA/GVG6wp3vpET7h/sCXfl/ocxGwXAR+49EbvCnVY43KyuVaPnwl25/+7JPRsFwMcGxK5wpxXOrteiK9tbwl25f/CDhQLgolm1K9xpxUmZqtn+szKlhXt2uc/bJwA+cfeZ3BXu3Litzeu26LFwV+7vPeuzTwB8aljuCndu3N61U/RAuCv394atE8B/2buXnjbSNAzDMj6oCxAHC7DdgMSQhZGRYIkssfOmF90RaqmTHbMZKaswSJMeiWMAQ9Kj+dOTWXV3wsFV/squr+u6fkC8iNBzq1R+zdeSmpOQwp3g7rKG6Ltz4a7cvzismScAvrWqd4U7oY2R0O+Fu3I/OmraJgAeUe8KXuFOYDfZQ/RKuCv3o25imwB4zJrgFe4U4+eX/u9BuCv3owXhDsCjkleKV7gT1qfsGXoi3JX7vm4H4AmzLckr3BHuyr0oWjPCHYCnHrkvSl7hjldllHtRLJolAJ5U6Whe4U7QcH+XuUGvzoR7ycu9U7FKADytqXmFOyFdZE/QoSfuZS/3ZZsEwDMSJyGFOyHdZy/Qa+Fe8nLvmiQAnjV3oHqFO+GcZO7Py4FwL3e5H8xZJACet696hTvh/Ctzft4I95KX+66LMgC8oNGTvcKdcC6z1uedcC93ubca9giAl2zKXuFOAb6dOhTu5S73LQ/cAXhJUl/XvcKdqb/kPs4r7sL9L1Du605BAjCCed0r3Anm7Dxbed4L93KX+7wtAmAUbeEr3Anm39nC81a4l7rc25YIgJFU+8pXuBPK7Ycs2XkxEO5lLveDqiUCYCTJivIV7kz366lD4V7qcl8xRACMqOYkpHAn3Cn3DI/cL86Ee5nLvecUJAAj25K+wp1g7lMX5/ntQLiXudxXrRAAI6tvaF/hTijXqX+E6fNAuJe53DfqVgiA0a1pX+FOMMOUL8vcDIR7qct92wYBkMae+BXuBHOX7reX3p8J9zKX+54FAiCVWSchhTvhpCnp8+HAE/cyl3t/1gIBkM6S+hXuTOMm5IergXAvdbkv2R8AUqp15K9wJ5iz30Z93n41EO6lLvdOzf4AkFbzR/0r3Jn0UcjL4UC4l7vcm9YHgLSSpKt/hTsBPZy/WJi/3NwOhHu5y72bmB8A0ls4FsDCnYBuP770evvd2UC4l7vcjxeEOwBZfCeAhTtBnTz7U0wXt6E+R7hHW+77lgeATGZaCli4E/Y7qndPpvvN8Gwg3Mte7q0ZywNANosKWLgTOt0fLh75HdXL+9uQHyLcYy33TbsDQEYVJyGFO+FdP/z66Q9fVL28+TwM/AnCPdJy71TsDgBZLUtg4U5O31S9ejj54mF4ncM/LtwjLfdlqwNAZsn3Gli4Ex/hHme5f++iDABjmDsQwcId4a7cJ+FgzuYAMI6/iWDhjnBX7pOwa3EAGEujp4KFO8Jdueev1bA4AIxnUwULd4S7cs/flr0BYEz1HRks3BHuyj1v605BAjC2eRks3BHuyj1v29YGgPG1dbBwR7gr93y1bQ0AAVT7Qli4I9yVe576VVsDQAgrQli4I9yVe56WLA0AQdSchBTuCHflnqOeU5AAhJGsKmHhjnBX7vlZNTQABFLfkMLCHeGu3POyUbczAISy9g+iItzLHu7veMlpkf5i16wMAOHsaWHhjnBX7vl4lRgZAMKZ7Yth4Y5wV+556M/aGABCWhLDwh3hrtzzsGhhAAiq1lHDwh3hrtzD69QsDABhNdWwcEe4K/fwlr3hDkBgSVcOC3eEu3IPravbAQhu4a0eFu4Id+Ue1tsF4Q5AePt6OBpX0rXcbgR5NOW+b1sAyMFMSxDH4p/Stdw+6fFYyr3VsC0A5GFREEfi+LN0LbdzOR5LuW9aFgByUXESMhb/la6ldiXGYyn39YplASAfy4o4Frfi1XdTiaDc5+0KAHlpK+JI3IvXErv2pkws5d52UQaA3My9kcRx+I9H7iV2L8QjKfeDqlUBID+7kjgSF2f6tayGH14L8TjKfSXxxB2A/DR6kjgKRz84LFNW792CjKXce05BApCrLU0cS7qfSNhyvuD+0fP2WMp9y6IAkKekviOJYyn3e2/LlNCt5+3RlPtO3aQAkK95RRyNm6GOLZmzu/OfBXgs5b5tTwDI+5n7niCOxPHx6cWVp+5lerv95PL1T/I7lnLfMycA5K7al8TROH19fnF/d0IJfP71o2qPqdz7sy7KAJC/FT0cj7+/e/2FHvvr+/LfLNujKvclWwLABNQO9XBEz9ylGBSw3A9rtgSASViVw8odlPs4mpYEgIlINuSwcgflnl3XKUgAJmTtmIic/gKM7nQCf5ULdgSASdlTw8odlHtW3yVOygAwKbN9NazcQbln05qxIgBMzpIYVu6g3LNZtCEATFClI4aVOyj3LDoVGwLAJDW1sHIH5Z7FshfcAZiopKuFlTso9/S6uh2ACVt4q4WVOyj3tN7M2Q8AJm1fCit3UO5p7VoPACZupiWFlTso93R6TkECMAWbSli5g3JPZ9N2ADAFTkIqd1Du6aw7BQnAVCwLYeUOyj2NecsBwHS0hbByB+U+urbdAGBK5g6EsHIH5T6qg6rdAGBadnWwcgflPqoVqwHA1DR6Oli5g3If8RRkw2oAMD1bMli5g3IfzarNAGCK6jsyWLmDch/FTt1mADBN2ypYuYNyH8W2xQBgqpI9FazcQbm/bM9gADBl1b4KVu6g3F/Sn7UXAEz7kfuSCFbuoNxfsmQuAJi62qEIVu6g3J93WLMWAEzfqgZW7qDcn9e0FQAUQNLVwModlPtzukliLAAoQLivSWDlDsr9OQumAoBieCWBlTso96fte94OQEHMOgmp3EG5P6k1YycAKIpFBazcQbk/ZdFKAFAYlY4CVu6g3B/XqVgJAIqjKYCVOyj3xy3bCACKxElI5Q7K/YlTkCYCgCKZeyOAlTso92+9mbMQABTLvv5V7qDcv7VrHwAomEZP/yp3UO5f6zW8KQNAwSSb8le5g3L/2pZuB6BwKjvyV7mDcv+zHacgASjgI/d59avcQbn/2bxxAKCI5d5Wv8odlPsftU0DAIVU7atf5Q7K/Xf9qmUAoJhWxK9yB+X+uxW7AEAxJbVD8avc+R9797LT1hWGYTi2ty22bZmzwVKRUAbGBpsIcRAncQfNAFS4gmQc9f4HTZVGaVNCzCRe61/Pcw/59qtfZgXl/u0pSB8GAFIt933tq9xBuX+17bMAQLrlPnkia59+Bxb36cV/T5O2rwIA6RpKX+UOyv2Lt74JAKTsWPoqd1Dufzv2RQAgad1T6avcQbk/PV11fREASNua8lXuoNyfnlZ9DwBIXDVSvsodlPuo8j0AIHH1hvBV7qDcN3wOAEi/3A+Er3KH0sv9oPY1ACB9g0fhq9yh7HJ/HPgWAJCDFd2r3KHscn/nSwBAFpo7ule5Q8nlvtP0JQAgD6uyV7lDyeW+5xfuAGSi4UlI5Q4Fl/uo4TsAQC7WVa9yh3LLfd1XAIBstHdVr3KHUst910cAgIz0HlSvcocyy/2h5xfuAOTkSPQqdyiz3I98AQDISudQ9Cp3KLHcDzu+AADkZU/zKncosdz37T8AmWlPNK9yh/JMPAUJQHb6kle5Q3n61h+A/HgSUrlDcc5tPwAZal1JXuUOZZm1bD8AOdpSvModynLTNv0A5Ki6VbzKHUoyryw/AHnaFrzKHUpyVvtPUwHIU/s3wavcoRxTP5QBIFtDvavcoRxDqw9Avo71rnKHUmzafAAy1j3Vu8odyjDr2nwAcrYmd5U7lOHG4gOQtWokd5U7lGDsKUgAMrehdpU7lODM3gOQufpA7Sp3iO/CC+4AZG/wqHaVO0T3fmDtAcjfithV7hCdpyABiKC5I3aVO8Q2b9p6ACJY1brKHWK7s/QAhNDwJKRyh9DGDUsPQAzrUle5Q2TXdh6AIOpdqavcIa4LMw9AGL0HqavcIar7lpUHII4jpavcIaoTGw9AIJ1DpavcIaZ5x8YDEMm+0FXuENOlhQcglPZE6Cp3iGjatvAAxNLXucodIurbdwCiOda5yh3iObfuAITTutK5yh2imXkKEoCAtmSucodobmw7AAFVtzJXuUMof4wr2w5ARNsqV7lDLGe1aQcgovaBylXuEMlUtwMQ1FDkKneIZGjXAYjKk5DKHQLZtOoAhNU9FbnKHaKYda06AHGtaVzlDlHc2XQAAmuMNK5yhxg8BQlAbBsSV7lDDNcWHYDQak9CKncI4aL2FiQAsQ0eJa5yh/zdD+w5ANG9U7jKHfJ34t4OQHjNHYWr3CF386Y1ByC+PYGr3CF3noIEoASehFTukLtx25YDUIJ1favcIW99Sw5AGXb1rXKHnF3YcQAK0bvSt8od8nXfsuMAlOJI3ip3yNeJFQegGJ1DeavcIVfzjhUHoBz7jwT253uI7NKGA1CQ9kTdKnfI09RTkACUpH4rbiN7Uu4E9taEA1CWY3Xr5g45OrffABR2cu9eiVs3d8jPzFOQABRX7mvi1s0d8nNjvgEoLtyrW23r5g65GVfmG4DybGtbN3fIzZntBqDEm/uBtHVzh7xMa9sNQIkGD9rWzR1ycj+03ACUeXJfUbZu7pCTTcMNQKGap9LWzR3yMWvabQBKtSps3dwhH3dWG4BiNUbK1s0dcjFu+NNUAIpVr+taN3fIxbXRBqDkct8Vtm7ukIcL93YAig733gdd6+YOOfjYM9kAlO1I17q5Qw5OHNwBKPzk3jmUtW7ukL55x2ADULo9WevmDum7dHAHoHjtiap1c4fUjRvWGgD6qtbNHVLXt9UA8OaNJyHd3CFx55YaAD5rXalaN3dI2azlF+4A8Fm9pWnd3CFlnoIEgC+qW1Hr5g7pmld2GgC+2Je0bu6QrjMrDQD/8CSkmzuka9r2SxkA+GqoaN3cIVVDGw0A3xxLWjd3SNNm7eAOAN90TxWtmzukaNa10ADwb2uK1s0dUnRjnwHgP6qRoHVzh/SMPQUJAN/ZELRu7pAeT0ECwPfqAz3r5g6pmfrDVAD4n8GDoHVzh7TcewoSAJ6xImfd3CEtm5YZAJ7R9CSkmzskZda0zADwnFU16+YOKbmzywDwrIYnId3cISHjhl0GgOeti1k3d0jHtVUGgB+od9Wsmzuk4sJTkADwQ70PYtbNHdLwsWeTAeDHjsSsmzuk4cQiA8ALOoda1s0dUjDvWGQAeMmelnVzhxRc2mMAeFF7ImXd3GH5pm17DAAv60tZN3dYvr41BoCfqI+VrJs7LNu5MQaAn2pdSVk3d1iuWcsWA8DPbQlZN3dYrhtLDAALqG6VrJs7LNO88p+mAsAC6m0d6+YOy3RmiAFgsXI/ELJu7rA809rBHQAWC/ehjHVzh+UZmmEAWJQnId3cYWk2bTAALKx7KmPd3GE5Zl0bDACLW5Oxbu6wHJ6CBIDXqEYq1s0dlmHcsMAA8BobKtbNHZbh2osyAPAqnoR0c4dluNDtAPBKgwcV6+YOv9r9wPoCwGu907Bu7vCreQoSAF6v6UnIv9i7m53GrTiMw3ISRziJYPiKYIGEuggJJIwiPkQBcQ/Tsulu1BFcwNz/oq2qtkxnhiH2sXNsP89FvPrpyPnHmztUbNGxvQCwui0J680dqvVgeQEgh8RJSG/uUKlJankBII9tBevNHap0a3cBIJ8DCevNHapzbXUBIKfhk4L15g5Vee5aXQDI60zBenOHqixtLgDk1j/9lbb6/AtUatG3uQCQ37F+Ve5QjRuLCwAFpFP9qtyhCjOnIAGgkJF8Ve5QhZG9BYBizuWrcofyXVlbACioeyFflTuUbe4UJAAUtqdelTuU7c7WAkBhvXv1qtyhXJNeZmwBoLB98arcoVyXlhYAAshOxKtyhzLNvLcDQJBwH2tX5Q5lGhtaAAhjQ7sqdyjPrpUFgEAGTkIqdyjNvGNlASCULemq3KEsD75wB4BQsuRQuip3KMckMbIAEM6OclXuUI5bD+4AEJKTkMpdYFKKa90OAEFtPipX5Q7hPQ+FOwCEyag8kQAAFBJJREFU9V64KneRSXhL3Q4AgXWchES5E9zCKUgACO5It6LcCe3GtgJAcMlUt6LcCWuS+lIGAILLRrIV5U5YI9MKAGWU+4FsRbkT0pX3dgAoJdy7TkKi3Alo3jWsAFBOuZ+pVpQ74SzNKgCUpH+qWlHuhLLoW1UAKMuxaEW5E4pTkABQntRJSJQ7gcz8MhUASvSTZkW5E8Y4NakAUJ7sXLOi3Alh14M7AJRqcKFZUe4EOAU5EO4AUO6T+zvJinKnuDvdDgAl6x1KVpQ7RU161hQAyn5y31GsKHeKujSmAFB+uZ8oVpQ7BU9BmlIAqMDmo2JFuVPEx7ElBYAqbAhWlDuFTkHaUQCoRMdJSJQ7RU5BduwoAFRjS6+i3MnvwSlIAKhI4iQkyp38pyATKwoAVdmWqyh38rq1oQBQmfRArqLcyefahzIAUKHhk1xFuZPH81C4A0CFsjO1inInj6UBBYBK9U/VKsqd1S36HtwBoNon9yOxinJndTfmEwAqlk7FKsqdlU9BptYTAKp+ch9pVZQ7q/4ydWQ8AaB6TkKi3FnRleUEgDXo/qxVUe6sYt61nACwDntSFeXOKu584Q4A65D17qUqyp1VTkEaTgBYj32linLn7S6tJgCs6ck9cxIS5c6bzXwoAwBrMxaqKHfeauw/UwFgfc6FKsqdt9nV7QCwRoMLoYpy502nIAfCHQDW6Z1ORbnzplOQ9hIA1qp3qFNR7vzYpGcvAWCtsh2ZinLHKUgAqEG5n8hUlDs/PAVpLAFg7TYfZSrKndd9HNtKAFi/DZWKcucHpyAtJQBEoOMkJMqdVy06lhIAYrAlUlHuvObBTgJAFJKpSEW588opyMROAkActjUqyp3vu7WSABCHLDvQqCh3vufaSgJANIZPGhXlzndOQXZtJADE4+wJvuXzM623tJAAEJH+qURFufMti76FBICYHClUlDvfcmMfASAq6VShotz52iy1jwAQl5FARbnztZF1BIDYnAtUlDv/d2UbASA63QuBinLnS3OnIAEgQnv6FOXOl+4y0wgA8end61OUOy9NepYRAGK0L09R7rx06cEdAKKUnshTlDsvTkHqdgCI1Fidotz5z9gqAkCsnIREufOvXZsIANEaOAmJcuefU5ADmwgA8XonTlHu/O3BIgJAxJJDcYpyxylIAIhdlu1oU5Q7f7m1iAAQd7o7CYly50/XmVuQABC3zUdtinLn06Y1BIDYbUhTlDtL7+0AEL2Ok5Ao99ZbdGwhAMRvS5mi3J2CBADil0yVKcq95acgE0sIAHWwLUxR7k5BAgDxyw5+g9d9/p0GuzKDAFATww/CFOXeXp+6TsoAQF2c6VKUe3stbSAA1Eb/VJei3Ntq0beBAFAfx7IU5d5WNxYQAGokncpSlHs7zVILCAB1MlKlKPd2Gts/AKiXc1WKcm/nKUgnZQCgXroXqhTl3j7zrvUDgLrZE6Uo9/a5s30AUDu9e1GKcm+bSc/2AUD97GtSlHvbXFo+AKih9ESTotxbdgrSD1MBoJbGkhTl7hQkABC/bEOSotzbZNfsAUBNDZyERLm36RRkx+oBQF2f3LcUKcq9PR6MHgDUVnKoSFHurTkFmfhpKgDU144gRbm3xa3FA4A6cxIS5d4S197bAaDWNh8FKcq9DT4N7R0A1Nt7PYpyb4Nl5sUdAOqtc6pHUe7Nt3AKEgBq70iOotyb78bWAUDtJVM5inJv/ilIWwcA9TdSoyj3phtZOgCovyw7UKMo92a7snQA0AjdD2oU5d5k866LMgDQDGdiFOXe6FOQVg4AGqJ/L0ZR7g0+BdmzcgDQFMdaFOXeXJc2DgAaI3USEuXeWLPUF+4A0BxjKYpyb6qxhQP4g717WWksC8Mw3DniiiGeyqADoehBjJoEJCqi4j0U1NyCmnV61NT90/Sh6K6jOay9s/baz3MRHy+LnT+Qk5kURbnn6Sh4cAeAnPTmUhTlnuUpyJ5uB4C87CtRlHuOHq0bAOQltE+VKMo9PyOnIAEgO4dCFOXuFCQAkP6TezgXoij37E5B+sAdADI0eC9EUe55+eAUJABkaUeHotwzOwVp1wAgS00nIVHueZ2CbNo1AMjTngxFuefk2aoBQKYaYxmKcs/oFGTDqgFApsKBCkW55+PBqAFAvuV+okJR7rm4cwoSADIO992X32Blf/xOeha7Jg0AcnYlQlHuebi2ZwCQte6lCEW552DatWcAkLczDYpyz8G9NQOAzHXGGhTlXn0XHWsGALnrS1CUe/X1nZQBgOyFmQRFuVfdrSkDgBpozSUoyr3aJi0P7gBQhyf3NwoU5V5tj4YMAGqh/fQe1vLpAymYtj24A0A9ntyPBSjKvcpudDsA1ETnXICi3KvrIgh3AKiLof5EuVfX0IYBQH3M9CfKvaqOLBgA1Ehvrj9R7tU06VkwAKiTffmJcq8mpyABoF7ap/IT5V5Fo4b9AoB6OVSfKPcqenBSBgBqJjgJiXKvoDvZDgC1M3inPlHuVfNxYLsAoH52xCfKvWquLRcA1FDzUnyi3Ktl2vSlDADU0Z72RLlXy7PdAoBaaoy1J8q9UqcgO3YLAGopHEhPlHulTkGaLQCoa7mfSE+Ue4VOQRotAKit3RfpiXKvikXLZgFAfV0pT5S7U5AAQPq6T8oT5V6RU5BdiwUAdfZWeKLcq+HeXgFAnYWOk5Ao90q4cAoSAGqurztR7lXQt1YAUHNhpjtR7um7NVYAUHutue5Euadu4hQkAPDLG9mJck/do6UCAH5pOwmJck/cqB1MFQAQjlUnyj1tN4YKAPir3M9VJ8o96VOQ3tsBgL/DfSg6Ue4pG5opAOAfTkKi3BN2ZKMAgH/1nIREuad7CrJnowCAz/Y1J8o9Vc8WCgD4LDRONSfKPdFTkA0TBQD8V+6HkhPlnqYHJ2UAgP+Xu5OQKPck3el2AOALg3eSE+WensXAOgEAX9pRnCj39FzbJgDgK81LxYlyT820aZsAgK/tCU6Ue2ruLRMA8I3GWHCi3BM7Bdnx01QA4FsHehPlnpa+XQIAvudEb6LcU3IbPLgDAN8RWi96E+We0CnIllkCAL5f7ldyE+XuFCQAkL7uk9xEuSdzCrJrkwCAH3mrNlHuTkECAOnrOAmJck/ERcciAQA/1hebKPc0DF2UAQB+ZiY2Ue4pONLtAMBPteZiE+W+fZOecAcAfirsa02U+/Y96nYA4BVtJyFR7ls3atsiAOA1x1IT5b5tN5YIAHhVOJeaKPctn4I0RADAEoZKE+W+VYuhHQIAlrGjNFHuWz0FaYUAgKX0nIREuW/zFGTTCgEAy9kTmij37Xl2ChIAWE5onApNlPvWTkE2jBAAsGy5H+pMlPu2PJggAGB5TkKi3LfkzocyAMAKBi/vILJPH3ndYle4AwArCFcyE+W+Dde6HQBYSfNSZqLcyzftCncAYCXhTGWi3Mt3r9sBgBU1xioT5V62Ucf2AAArCn2RiXIv+5epfdMDAKxe7iciE+VerlsfygAAa2jNRSbKvUyTlt0BANbhJCTKvVSPvnAHANbSftKYKPcyT0FaHQBgPW8lJsq9PDe+cAcA1tQ5l5go97Jc+FAGAFjbUGGi3Msy9OAOAKxvpjBR7uU40u0AwAZ6TkKi3Ms5BdkT7gDABsK+wES5l3IKUrcDABtpnwpMlHvxRm1rAwBsJBzqS5R7CacgjQ0AsGm5OwmJci/+FKSpAQA2NnjRlyj3Yi0GlgYA2NyOvES5F3wK0s4AABE0nYREuRdq2rQzAEAMe+oS5V6kZ6cgAYAYQmOsLlHuBZ6CbJgZACBOuR+IS5R7cR6MDAAQSedEXKLci3JnYgCAaHadhES5F3UKctfCAADxXGlLlHsxru0LABBR90lbotwLOQXZtS8AQEThTFqi3Itwb14AgKg6TkKi3Atw0bEuAEBUoa8sUe7x9Y0LABDbTFmi3GO7tSwAQHStubJEucc1aVkWACC+N8IS5R7XYzAsAEB0oe0kJMo9qlHbsAAARTjWlSj3mG48uAMARQidc12Jco94ClK3AwAFGcpKlHs8Q5sCABTFSUiUezRHFgUAKEzzUlai3OOY9iwKAFCYcKYqUe5x3BsUAKBAjbGqRLlH+WVqw54AAEX6VVSi3CNY+GUqAFCwK1GJct/ctS0BAArW9f+pKHf/mQoAVMCBpkS5b6rvv5cAgOLtaEqU+4Yfyuh2AKAE7VNNiXLf7EMZ4Q4AlCAMXzQlyn19k4EZAeBP9u5mR20rDMAwBmxxDGJmQoJmU6nqIoPDj4RqEBpG3EOl7LPortNVlPtXwkhJlaZqgIXxsZ/nEkbjTy/Wd46hGq8lJcr9cgczBACoSPIgKVHul9rakwEAKpO/k5Qo98ssu8IdAKjOnaJEuV/mUbcDAFXyAVWU+0X2QbgDAFVK7xUlyv18m9T0AACq1Z8pSpT72Te4Z2YHAFCtEHpPihLlfubB1J7ZAQBUb+Q7TCj3szyPzA0A4Bp+EZQo93PsTA0A4CrCQFCi3E83MTQAgCtxtQzK3YUyAEAMEuWOcj/RNjExAIBrCaH/IChR7qco+iYGAHDNcs9c545yP6Xbu+YFAHBdXeWOcv/5h5dyswIAuLbch5hQ7j/rdh9eAgCuzydUUe66HQCIotzz2XtFiXL/n24PwaAAAGogteeOcncuFQCIQfbwAarx6Tky28z7dgCgRuV+LyhR7v/Z7X3ZDgDUSbISlCj3H22SjnAHAOokpANBiXL/lz/Xqh0AqJ83ghLl/r1dKtwBgNoJYfqkKFHu/1hOzQUAoJ7lns8UJcr9q8L17QBAbcvdEVWU+7djqa6TAQDqnO63ihLlfrQP3rcDAHUO9zCy6I5yf347Mg4AgJqneyezLkPry33T9bodAKh/uqdvfteUtLncFwfZDgDEke5Dt8vQ4nIvhoYAABCL5LWmpK3lPklMAAAgIlMv3WlluRfT0LEnAwDEI4TkxqY7rSv3xT5R7QBAbOXeye9VJe0q923P5e0AQJTt/uhOd1pU7ssydKzJAABxlns2l5W0pdzXmWceAIg43XsDXUkbyn0z9K4dAIjc2Ko7jS/37dSTDgDEL0wflCVNLvfi0WMOADSj3NNXbnWnseVelJZkAIAGpftv3rrTyHIvytQDDgA0Kt0749VHdUnDyn1jtx0AaGK757c+pkqDyn0x6XmsAYBmlnvIDrM/BCaNKPfi4N52AKDB5R7CcP5OYRJ7uS8m0+BIKgDQdMno3rY7MZf7tuwff4R6lgGAhvtSPPmNS2aItNy3hzwNx+PWAAAtSPcv8d59tXJUlcjKfbHddb1qBwDaFu8hJKP5k9IklnJfTsp+x6t2AKCd6R7SXjmf/aU2qXm5v93spoodAGh7vqfZ3d7KO3Ut97+LSdkT7QAALwvvIfSHd/vVTHRSp3Jfbte7aeYkKgDAd/1+zKP+uLwZrGY237lquS+LzXpfjvtf/zEBAPgx318yKcnHd+Wvh9v5fD6A803Otl7v94ddWT6O8+S4wOWidgCA0yPe34AKfzK+nJYO1mIAAMAPRQAAAAAAAAAAAAAAAAAAAAAAAAAAAAAAAAAAAAAAAAAAAAAAAAAAAAAAAAAAAAAAAAAAAAAAAAAAAAAAAAAAAAAAAAAAAAAAAAAAAAAAAAAAAAAAAAAAAAAAAAAAAAAAAAAAAAAAAAAAAAAAAAAAAAAAAAAAAAAAAAAAAAAAAAAAAAAAAAAAAAAAAAAAAAAAAAAAAAAAAAAAAAAAAAAAAAAAAAAAAAAAAAAAAAAAAAAAAAAAAAAAAAAAAAAAAAAAAAAAAAAAAAAAAAAAAAAAAAAAAAAAAAAAAAAAAAAAAAAAAAAAAAAAAAAAAAAAAAAAAAAAAAAAAAAAAAAAAAAA4DN7cCAAAAAAAOT/2giqqqqqqqqqqqqqqqqqqqqqqqqqqqqqqqqqqqqqqqqqqqqqqqqqqqqqqqqqqqqqqqqqqqqqqqqqqqqqqqqqqqqqqqqqqqqqqqqqqqqqqqqqqqqqqqqqqqqqqqqqqqqqqqqqqqqqqqqqqqqqqqqqqqqqqqqqqqqqqqqqqqqqqqqqqqqqqqqqqqqqqqqqqqqqqqqqqqqqqqqqqqqqqqqqqqqqqqqqqqqqqqqqqqqqqqqqqqqqqqqqqqqqqqqqqqqqqqqqqqqqqqqqqqqqqqqqqqqqqqqqqqqqqqqqqqqqqqqqqqqqqqqqqqqqqqqqqqqqqqqqqqqqqqqqqqqqqqqqqqqqqqqqqqqqqqqqqqqqqqqqqqqqqqqqqqqqqqqqqqqqqqqqqqqqqqqqqqqqqqqqqqqqqqqqqqqqqqqqqqqqqqqqqqqqqqqqqqqqqqqqqqqqqqqqqqqqqqqqqqqqqqqqqqqqqqqqqqqqqqqqqqqqqqqqqqqqqqqqqqqqqqqqqqqqqqqqqqqqqqqqqqqqqqqqqqqqqqqqqqqqqqqqqqqqqqqqqqqqqqqqqqqqqqqqqqqqqqqqqqqqqqqqqqqqqqqqqqqqqqqqqqqqqqqqqqqqqqqqqqqqqqqqqqqqqqqqqqqqqqqqqqqqqqqqqqqqqqqqqqqqqqqqqqqqqqqqqqqqqqqqKu3BIQEAAACAoP+vXWEDAAAAAAAAAAAAAAAAAAAAAAAAAAAAAAAAAAAAAAAAAAAAAAAAAAAAAAAAAAAAAAAAAAAAAAAAAAAAAAAAAAAAAAAAAAAAAAAAAAAAAAAAAAAAAAAAAAAAAAAAAAAAAAAAAAAAAAAAAAAAAAAAAAAAAAAAAAAAAAAAAAAAAAAAAAAAAAAAAAAAAAAAAAAAAAAAAAAAAAAAAAAAAAAAAAAAAAAAAAAAAAAAAAAAAAAAAAAAAAAAAAAAAAAAAAAAAAAAAAAAAAAuAVjFw2uhLK97AAAAAElFTkSuQmCC;" vertex="1" parent="1">
                    <mxGeometry x="-561" y="-69" width="80" height="80" as="geometry"/>
                </mxCell>
                <mxCell id="27" value="" style="shape=image;verticalLabelPosition=bottom;labelBackgroundColor=default;verticalAlign=top;aspect=fixed;imageAspect=0;image=data:image/png,iVBORw0KGgoAAAANSUhEUgAAAQAAAAEACAYAAABccqhmAAAACXBIWXMAABYlAAAWJQFJUiTwAAAQD0lEQVR42u2dT2xcxR3Hv+/Z+UM3lY2qtI6a1o4aVaISjXOgqlSogyxUNZekoF56qQVHlGDgtip0ExffKoVE7Q2xUZUeCpSgiqCKrmK7EUgckgWhcomKIyphCdHYVlxwEmd7yFuzXtvrfbvz3pt58/lIHAhk/8zO7zvfme+8maBWqwkA/CSkCQAQAABAAAAAAQAABAAAEAAAQAAAAAEAAAQAABAAAEAAAAABAACn6KUJ1jI6udQv6VD0z7CkEVrFaaYlVSVNSZqqFAvzNMlXBDwNuFr4hySNSzpCa+Sas5LKlWJhiqZAAOqFX2Kk99IZlHwXAm8FILL6ZUZ873lD0pivUwMvBSAa9c9L6qP/g6QFSUd9dAOhh8U/JukixQ8N9Em6GPUNBCDnxf8y/R024WXfRCCk+AH8FQEv1gBGJ5eOSnqdvg0x+EWlWDiPALhf/EO6uxGEOT/EYUHScKVYmGUK4DZlih86oC/qO6wBOD7vZ4MPdMpI3tcDcjsFiDb6zDL6g4GpwFBeNwrl2QGMU/xgaCowjgNwa/QfkvQxfRcMsi+PC4J5dQCn6K9An/LQAUT7/C/SXyEBHs7b8wJ5dABl+ingAjwUgNHJpXFJg/RTSIgDUR9jCmBh8RP7QRrkKhbMkwMoUfyQAn1RX8MBWDT6D4nYD9IlF7FgXhxAmf4I9DkPBSB61Jf9/pA2I1HkjABkDJt+ABfgowCMTi6VROwH2THoeizo7CIgsR9YgtOxoMsO4BTFDxbgdCzopAMYnVwalnSFvgcWcbBSLFRxAOmN/gD0Sd8EgNgPLGUk6psIQILF38/oD7gAfx0AT/uBzQxG0bQzOLMIyPn+4AhOxYIuOYASxQ8O0OfSVMAJB8AxX+AgTsSCrjiAEv0JHMMJF2C9AHC7DziKE7Gg1VOAKParipV/cJNrunvBqLULgrY7AGI/cJlBWX6rkLUOgGO+ICdYfc24zQ6AHX+QB6x+WtBKB0DsBznEyluFbHUAjP6QN6x0AdYJQBT7HaC/QM4Yifo2U4AWxc8xX5BnrIsFbXMAJYofcox1saA1DoDYDzzBqljQJgdQpm+AB1j1tKAVDoDYDzzEiljQFgfA6A++YYULyFwAoptV2O8PvnHAhlgw0ykAsR94TubHh2XtAEoUP3hMnzKOBTNzANzuA7DKvqxiwSwdAPv9ATKuhUwEgNt9ANZwJIrCvXEAjP4Aayl7IQDRzSnEfgBrGYwi8VRJdRGQ2A+gJanHgmk7gFMUP8CmpH58WGoOgP3+AG2TWiyYpgMo8bsCtEU5V1MAbvcBiMVIWrFgmELx9zP6A9jpAtJwADztBxCfVGLBRBcBo2O+qmLlH6ATEo8Fk3YAJYofoGMSPz4sMQdA7AdgjIOVYqHqmgNgvz+A5bWUiABwuw+AUUaiJ2jtF4Ao9mP0B3DABSThAMbFwh+AaQajJ2mNYnQRkNt9ABLFeCxo2gFg/QGSw3gsaMwBEPsBpIaxWNCkAyjzuwCkgjEXYEQAuN0HIFVGTN0q1PUUgGO+ADLhmu5eM97VgqAJB1Ci+AFSZ1AGbhXqygEQ+wFkykLkAmazcgBlfgOAzOj6ENGOHQCxH4A1PFwpFqbSdgCM/gB20LEL6EgAuN0HwCo6jgVjTwGI/QCspKNYsBMHwO0+APbRUSwYywGMTi4NS7pCW7fmZz/s1UBfSEMYZG7hjv7+wW0aYmti3SrU28HoDy148pHtevSBbTREAnxz12396R3aoY0abfv0oLaHqehIIm732QKKPzl++eN7tHJziYZozZE4twqFbRY/x3xB5hR2hrqzchMRMOjU23UAPO0H1oAIbMmBdmPBLQUg2u8/TpsCIuCWC4ice9cOoCRiPzDA1blbqs4u6+rcLUQgefraGbhbxoDs949PpVigETYo/DMX5nXl4+XVPxvo71XxsXs1PLQj1mv99Ln/rB/FerarZzvtvgktY8GtHECJ9oNui//4S5+tKX5Jmpu/reMvfabq7DJOIOGpQEdTgGgRgdgPuuLMhXnd+PLOpv998rXrTAeSpWUsGG5S/P2M/tAtc/Mr60b+9f/PbSMuABFoSTmuAyD2AwMC0N7W3a1EAhHomsHo4N6tBSCK/X5Lm0G3DPS3t9P84L4dRt8XEdiQ0kaxYBh30QCgfQHo2bK4B/p7YycBiEBHbHh8WNg0+h+SdIS2AlMcO9yvXTs3D5uOH05uiwkisI6nIoe/qQNg9Aej7B/YptNP7F43HRjo79Xkr76hB++7J9H3RwTWUW78l9WNQFHs9zLt0x1sBNqcq3O3ViPBTm3/RhuB2oHNQmtYPUS0UZZLtAsk7Qay4s7KTemmEIGvav3Q6hQgGv2J/SDXMB1YZaS+Oai+BnCUNgFEwCvGJCmMskFW/sF6llpsKUYEYvPrugNg9DfIa+8t0wgJ8daV/+EEDDI6uXS0t74YAGb449u39Onny3rwvh00hiFufHFHV2aX9co7N4xPBzxfGDzUK2mILmaQINDrl0O98u5/Vaut0B4OrAl4LALDoXjkNxER6N3xdQVBD23hiAh4Oh0Y5vYKRAD8FQGur0EEwGcRQAAQAfBYBBAARAA8FgEEABEAj0UAAUAEwGMRCCVN81MjAuClCFwLJc3yMyMC4KUIVHslTSl6MADM8NiPtukn32+nuO9R7c6KpBqNtgX//OgL41uB44pADncMVnslnRcnARnjyUe269EH4hx8gQtoh+GhHdrT36vTF+YRAXOcDyvFwrykN+hiZohX/BCHnx/8GtMBg/P/SrFQracA5+leYDuFnXaEVjkRgbIUxYCVYqEs6RpdDMAbEfhKACJK/KwAXojA2fqV4asCELmA9/lZISmuzt1SdXbZ2GWgiEBHLDQO9s2Xt41LukhXBdOFXzz3+ZrLQgf6e3X8cF/iF4OkJQIOpQOn6qN/8xRA0WUBJAJgtPiPv/TZupuC5+Zvq/jnz3Xpoy9wAulxTU23f220rDpOtwVTnLkwv3ob0EZM/vU604H0KEWx/+YCENmDE3Rd6Ja5+RVd+bj1fP/Gl3dYE0iH6WidT1s5AEU2YYEuDN0JwO32pgmf3srV97ZUBEob/eGGAhDZBKYC0BXNNwJvxv49+ds9aZkInK1fBtquAyAWBAMC0KOD+3ZsKRKd3hSMCLTFQqvBfKu9lbgA6Ipjh/u1q8UW3uJj9+b6+1sgAqeaF/7aFgBiQeiW/QPbdPqJ3eucwEB/r04/sTu3o78lInCtUiyUWv0P7UzSxsXlodClCLz4+G7Nza9obv62du0MtX/Ar6cmM9ostKWD3/LxKmJBMLkmMDy0w7viz8gJTFeKhfNdC0B9HiFiQQCXRKCt9bu2BIBYEMApEThbKRaqxgQgEoGyOEEYMmSpxZZiRGCVhTiDddwjVkp0w9a89t4yjZAQf3n3Rq6+T0Ii0DL2ayao1eKdSDs6uVQWpwi35JEfrOhbfbSDSeaur+itK/k8nz/s2W4qHbhWKRaG4vyF3g7epCTpqCS6+Ca8/a8erdxcuhv9ALThBAxFhGOxxSfuX4hiwVP8bK3p2V5Q2LOdhoC0pgPTm+33NyoA9XmGOEQUEQCbRGCsk7/UkQBEiwwlfjJEAKwQgRcbj/lKwwEQCyICYIcILHQzGHd70wIuABGAbEWgFCf2ayZ2DNgMsWA8SAcg1gjdOiKMHfuZdgB1F8BzAjgBSN8JjHUtMN2+ALEgIgCZiEBHsV8SDkAiFkQEIG0RGDPxukYEgFgQEYBUReBEp7FfUg6AWBARgHREYNHklNv0heu4AEQAkuXZbmK/ZrqOAZshFuwcIkLYgg9nJvbeb/IFwwQ+ZEnEgjgBME+t9rTplzQuAMSCiACYJ1Dw5szvvvMP6wUgglgQEQCjChAeT+JlExEAYkFEAIyO/i9Mn9zzb2cEIBKBsogFEQHolkUF4e+TevEw4Q+PC0AEoDuenT6553pi7sJ0DNgMsaAZiAi95NLMxN6HknyDMIUvURKxIE4A4lOrJX4lX+ICQCyICEAH1lzBuSRivywcgEQsiAhAHBYVhM+n8UapCACxICIAsUb/M0nFflk5AGJBRADa45MkY7/MBCACF4AIQGtOJhn7rXMbSceAzRALmoeIMDckHvtl7QDqLoBYECcAzaQQ+2UuAMSCiABsYMVTiv1scAASsSAiAI0sKgiPZfHGmQhAFAuO87sjArAa+13P5L3TXgRsZHRyaUrSCF3APCwMOsMnMxN7v5vVm4cZf3lcAE7Ad57J8s0zFYBKsVCVdJY+gAh4yqWZib2veisADS6AWBAR8G/uH/Q8lfVnyFwAogVBYkFEwK/iV3Bu+uSey94LQCQCJRELIgL+kFnsZ6UANEwFABHwYfTPLPZb91myjAGbIRZMByLCTMk09rPZAeACcAL5p1Z73KaPY5UAEAsiAjnnUhb7/V1yAHUXQCyICORv7h/0WPcYvHUCQCyICOSy+BX8Ia1jvlx3AMSCiEDeWFQQPmfjBwstbjQWBBGBvDBhS+y3zpnYFAM2QyyYPkSExrEq9nPJAeACcALuY1ns55QAEAsiAo5jXeznmgOouwBiQUTAOWyM/ZwTAGJBRMDJ4lfwgo2xn4sOgFgQEXCNxTRv98m9ADRMBQARcIFnbY391jkVm2PAZogFs4WIsC0+nJnYe78rHzZ0rHFxATgBu6nVnnbp4zolAMSCiIDVdlrBm7bHfq47gLoLIBZEBCxUgPC4ax/ZOQEgFkQELB39nYj98uAAiAURAdtwJvbLhQA0TAUAEbABZ2K/dc7FpRiwGWJBe/A4Irw0M7H3IVc/fOh44+MCcALZUqudcPnjOy0AxIKIQKb2WcE512K/vDmAugsgFkQE0mZRQfi861/CeQEgFkQEMhr9z7gY++XRARALIgJp84mrsV8uBaBhKgCIQBqcdDX2W+dkXI4BmyEWtJOcRYROx355dgCSNEa54QQSxfHYL9cCUCkWZiW9SMkhAonY5RzEfnl3AJJUErEgImCeRQXhsbz9JrkTgCgWLFFuiIDh0f9MXhb+1nyvPC0CNjI6uTQraZCSsxPHFgatvt0HB7AxY5QZTsAQz+T1d8itA4hcwJSIBXEC3ZGr2M8nB4ALwAl0P0IGPU/luf1zLQBRLHiCMkMEOir+u8d8Xc5z2+d6CtAwFahKOkCpMR2IgVPn++MAWnNI7A3ACbTPYhD0HPGhzb0QgGhvACKACLRb/A/n4VFfBGCtCFQRAUSgzeK/7Etbhz51rAYR4OwARMD74vdOABpEYFjSNGWGCERcCoKeId+KX/IkBdiM0cmlcd19bqCPcrOXJNOBQMEL0xPf/o2vbRv63LEqxcKpyA1wsrBnTiBQcC4Ier7nc/F77wCa3MCQ7h4rNoYjyK0TWAwU/E1B+Lwvq/wIQGdicEjS0cgdDCMITovApUDB+zXVpmYm9r5KCyIAAMAaAAAgAAAIAAAgAACAAAAAAgAACAAAIAAAgAAAAAIAAAgAACAAAOAk/we2wJdT+a6iyQAAAABJRU5ErkJggg==;" vertex="1" parent="1">
                    <mxGeometry x="298.5" y="267" width="25" height="25" as="geometry"/>
                </mxCell>
                <mxCell id="29" value="" style="endArrow=classic;html=1;strokeColor=#0066CC;fontSize=15;fillColor=#0066CC;strokeWidth=2;" edge="1" parent="1">
                    <mxGeometry width="50" height="50" relative="1" as="geometry">
                        <mxPoint x="477" y="609" as="sourcePoint"/>
                        <mxPoint x="477" y="649.5" as="targetPoint"/>
                    </mxGeometry>
                </mxCell>
                <mxCell id="30" value="" style="rounded=0;whiteSpace=wrap;html=1;dashed=1;strokeColor=#CC6600;fontSize=15;fillColor=none;" vertex="1" parent="1">
                    <mxGeometry x="286.5" y="258" width="515" height="77" as="geometry"/>
                </mxCell>
                <mxCell id="31" value="Download manifest.json" style="rounded=0;whiteSpace=wrap;html=1;dashed=1;strokeColor=#CC6600;fontSize=15;fillColor=none;" vertex="1" parent="1">
                    <mxGeometry x="298.5" y="267" width="120" height="60" as="geometry"/>
                </mxCell>
                <mxCell id="32" value="Copy CI &lt;br&gt;Datasets" style="rounded=0;whiteSpace=wrap;html=1;dashed=1;strokeColor=#CC6600;fontSize=15;fillColor=none;" vertex="1" parent="1">
                    <mxGeometry x="425.63" y="267" width="120" height="60" as="geometry"/>
                </mxCell>
                <mxCell id="34" value="DBT (slim)&lt;br&gt;RUN/TEST" style="rounded=0;whiteSpace=wrap;html=1;dashed=1;strokeColor=#CC6600;fontSize=15;fillColor=none;" vertex="1" parent="1">
                    <mxGeometry x="552.5" y="267" width="120" height="60" as="geometry"/>
                </mxCell>
                <mxCell id="39" value="Delete CI&lt;br&gt;Datasets" style="rounded=0;whiteSpace=wrap;html=1;dashed=1;strokeColor=#CC6600;fontSize=15;fillColor=none;" vertex="1" parent="1">
                    <mxGeometry x="675.5" y="267" width="120" height="60" as="geometry"/>
                </mxCell>
                <mxCell id="41" value="" style="endArrow=classic;html=1;strokeColor=#0066CC;fontSize=15;fillColor=#0066CC;strokeWidth=2;" edge="1" parent="1">
                    <mxGeometry width="50" height="50" relative="1" as="geometry">
                        <mxPoint x="630" y="609" as="sourcePoint"/>
                        <mxPoint x="630" y="649.5" as="targetPoint"/>
                    </mxGeometry>
                </mxCell>
                <mxCell id="42" value="" style="endArrow=classic;html=1;strokeColor=#0066CC;fontSize=15;fillColor=#0066CC;strokeWidth=2;" edge="1" parent="1">
                    <mxGeometry width="50" height="50" relative="1" as="geometry">
                        <mxPoint x="311" y="511" as="sourcePoint"/>
                        <mxPoint x="480.5" y="450" as="targetPoint"/>
                        <Array as="points">
                            <mxPoint x="358" y="511"/>
                            <mxPoint x="360.5" y="450"/>
                        </Array>
                    </mxGeometry>
                </mxCell>
                <mxCell id="43" value="" style="endArrow=classic;html=1;strokeColor=#0066CC;fontSize=15;fillColor=#0066CC;strokeWidth=2;" edge="1" parent="1">
                    <mxGeometry width="50" height="50" relative="1" as="geometry">
                        <mxPoint x="476" y="488" as="sourcePoint"/>
                        <mxPoint x="476" y="528.5" as="targetPoint"/>
                    </mxGeometry>
                </mxCell>
                <mxCell id="44" value="" style="endArrow=classic;html=1;strokeColor=#0066CC;fontSize=15;fillColor=#0066CC;strokeWidth=2;" edge="1" parent="1">
                    <mxGeometry width="50" height="50" relative="1" as="geometry">
                        <mxPoint x="629" y="488" as="sourcePoint"/>
                        <mxPoint x="629" y="528.5" as="targetPoint"/>
                    </mxGeometry>
                </mxCell>
                <mxCell id="45" value="" style="endArrow=classic;html=1;strokeColor=#0066CC;fontSize=15;fillColor=#0066CC;strokeWidth=2;" edge="1" parent="1">
                    <mxGeometry width="50" height="50" relative="1" as="geometry">
                        <mxPoint x="169" y="516.5" as="sourcePoint"/>
                        <mxPoint x="226" y="516" as="targetPoint"/>
                    </mxGeometry>
                </mxCell>
                <mxCell id="46" value="" style="sketch=0;html=1;verticalAlign=top;labelPosition=center;verticalLabelPosition=bottom;align=center;spacingTop=-6;fontSize=11;fontStyle=1;fontColor=#999999;shape=image;aspect=fixed;imageAspect=0;image=data:image/svg+xml,PHN2ZyB4bWxucz0iaHR0cDovL3d3dy53My5vcmcvMjAwMC9zdmciIHhtbG5zOnY9Imh0dHBzOi8vdmVjdGEuaW8vbmFubyIgd2lkdGg9IjIwLjAwMTA0NTIyNzA1MDc4IiBoZWlnaHQ9IjIwLjAwMTA0NTIyNzA1MDc4IiBmaWxsLXJ1bGU9ImV2ZW5vZGQiIHZpZXdCb3g9IjAgMCAyMC4wMDEwNDUyMjcwNTA3OCAyMC4wMDEwNDUyMjcwNTA3OCI+JiN4YTsJPHN0eWxlIHR5cGU9InRleHQvY3NzIj4mI3hhOwkuc3Qwe2ZpbGw6I2FlY2JmYTt9JiN4YTsJLnN0MXtmaWxsOiM2NjlkZjY7fSYjeGE7CS5zdDJ7ZmlsbDojNDI4NWY0O30mI3hhOwk8L3N0eWxlPiYjeGE7CTxwYXRoIGNsYXNzPSJzdDAiIGQ9Ik00LjczIDguODN2Mi42M2E0LjkxIDQuOTEgMCAwIDAgMS43MSAxLjc0VjguODN6Ii8+JiN4YTsJPHBhdGggY2xhc3M9InN0MSIgZD0iTTcuODkgNi40MXY3LjUzQTcuNjIgNy42MiAwIDAgMCA5IDE0YTggOCAwIDAgMCAxIDBWNi40MXoiLz4mI3hhOwk8cGF0aCBjbGFzcz0ic3QwIiBkPSJNMTEuNjQgOS44NnYzLjI5YTUgNSAwIDAgMCAxLjctMS44MlY5Ljg2eiIvPiYjeGE7CTxwYXRoIGNsYXNzPSJzdDIiIGQ9Ik0xNS43NCAxNC4zMmwtMS40MiAxLjQyYS40Mi40MiAwIDAgMCAwIC42bDMuNTQgMy41NGEuNDIuNDIgMCAwIDAgLjU5IDBsMS40My0xLjQzYS40Mi40MiAwIDAgMCAwLS41OWwtMy41NC0zLjU0YS40Mi40MiAwIDAgMC0uNiAwIi8+JiN4YTsJPHBhdGggY2xhc3M9InN0MSIgZD0iTTkgMGE5IDkgMCAxIDAgMCAxOEE5IDkgMCAxIDAgOSAwbTAgMTUuNjlhNi42OCA2LjY4IDAgMCAxIC4wMDctMTMuMzYgNi42OCA2LjY4IDAgMCAxIDQuNzI3IDExLjQwM0E2LjY4IDYuNjggMCAwIDEgOSAxNS42OSIvPiYjeGE7PC9zdmc+;" vertex="1" parent="1">
                    <mxGeometry x="425.63" y="267" width="25" height="25" as="geometry"/>
                </mxCell>
                <mxCell id="47" value="Only if dbt slim ci succeeded" style="rounded=0;whiteSpace=wrap;html=1;dashed=1;strokeColor=none;fontSize=11;fillColor=none;" vertex="1" parent="1">
                    <mxGeometry x="480" y="493" width="146" height="21" as="geometry"/>
                </mxCell>
            </root>
        </mxGraphModel>
    </diagram>
</mxfile>